<svg width="644" height="399" viewBox="0 0 644 399" fill="none" xmlns="http://www.w3.org/2000/svg">
<rect width="329" height="66" rx="33" fill="#F25700"/>
<path d="M35.961 45.789V49.8H30.354V45.747C26.763 44.991 23.718 42.681 23.487 38.607H27.603C27.813 40.812 29.325 42.534 33.168 42.534C37.284 42.534 38.208 40.476 38.208 39.195C38.208 37.452 37.284 35.814 32.601 34.701C27.393 33.441 23.823 31.299 23.823 26.994C23.823 23.382 26.742 21.03 30.354 20.253V16.2H35.961V20.295C39.867 21.24 41.82 24.201 41.946 27.414H37.83C37.725 25.083 36.486 23.487 33.168 23.487C30.018 23.487 28.128 24.915 28.128 26.931C28.128 28.695 29.493 29.85 33.735 30.942C37.977 32.034 42.513 33.861 42.513 39.153C42.492 42.996 39.615 45.096 35.961 45.789Z" fill="#F2F0EA"/>
<path d="M70.1136 41.5V24.0455H72.2273V39.625H80.3409V41.5H70.1136ZM83.3409 41.5V28.4091H85.3523V41.5H83.3409ZM84.3636 26.2273C83.9716 26.2273 83.6335 26.0938 83.3494 25.8267C83.071 25.5597 82.9318 25.2386 82.9318 24.8636C82.9318 24.4886 83.071 24.1676 83.3494 23.9006C83.6335 23.6335 83.9716 23.5 84.3636 23.5C84.7557 23.5 85.0909 23.6335 85.3693 23.9006C85.6534 24.1676 85.7955 24.4886 85.7955 24.8636C85.7955 25.2386 85.6534 25.5597 85.3693 25.8267C85.0909 26.0938 84.7557 26.2273 84.3636 26.2273ZM91.0476 33.625V41.5H89.0362V28.4091H90.9794V30.4545H91.1499C91.4567 29.7898 91.9226 29.2557 92.5476 28.8523C93.1726 28.4432 93.9794 28.2386 94.968 28.2386C95.8544 28.2386 96.63 28.4205 97.2947 28.7841C97.9595 29.142 98.4766 29.6875 98.8459 30.4205C99.2152 31.1477 99.3999 32.0682 99.3999 33.1818V41.5H97.3885V33.3182C97.3885 32.2898 97.1214 31.4886 96.5874 30.9148C96.0533 30.3352 95.3203 30.0455 94.3885 30.0455C93.7464 30.0455 93.1726 30.1847 92.6669 30.4631C92.1669 30.7415 91.772 31.1477 91.4822 31.6818C91.1925 32.2159 91.0476 32.8636 91.0476 33.625ZM104.95 36.7273L104.916 34.2386H105.325L111.053 28.4091H113.541L107.439 34.5795H107.268L104.95 36.7273ZM103.075 41.5V24.0455H105.087V41.5H103.075ZM111.393 41.5L106.28 35.0227L107.712 33.625L113.95 41.5H111.393ZM121.08 41.7727C119.818 41.7727 118.73 41.4943 117.815 40.9375C116.906 40.375 116.205 39.5909 115.71 38.5852C115.222 37.5739 114.977 36.3977 114.977 35.0568C114.977 33.7159 115.222 32.5341 115.71 31.5114C116.205 30.483 116.892 29.6818 117.773 29.108C118.659 28.5284 119.693 28.2386 120.875 28.2386C121.557 28.2386 122.23 28.3523 122.895 28.5795C123.56 28.8068 124.165 29.1761 124.71 29.6875C125.256 30.1932 125.69 30.8636 126.014 31.6989C126.338 32.5341 126.5 33.5625 126.5 34.7841V35.6364H116.409V33.8977H124.455C124.455 33.1591 124.307 32.5 124.011 31.9205C123.722 31.3409 123.307 30.8835 122.767 30.5483C122.233 30.2131 121.602 30.0455 120.875 30.0455C120.074 30.0455 119.381 30.2443 118.795 30.642C118.216 31.0341 117.77 31.5455 117.457 32.1761C117.145 32.8068 116.989 33.483 116.989 34.2045V35.3636C116.989 36.3523 117.159 37.1903 117.5 37.8778C117.847 38.5597 118.327 39.0795 118.94 39.4375C119.554 39.7898 120.267 39.9659 121.08 39.9659C121.608 39.9659 122.085 39.892 122.511 39.7443C122.943 39.5909 123.315 39.3636 123.628 39.0625C123.94 38.7557 124.182 38.375 124.352 37.9205L126.295 38.4659C126.091 39.125 125.747 39.7045 125.264 40.2045C124.781 40.6989 124.185 41.0852 123.474 41.3636C122.764 41.6364 121.966 41.7727 121.08 41.7727ZM134.503 41.7727C133.412 41.7727 132.449 41.4972 131.614 40.946C130.778 40.3892 130.125 39.6051 129.653 38.5938C129.182 37.5767 128.946 36.375 128.946 34.9886C128.946 33.6136 129.182 32.4205 129.653 31.4091C130.125 30.3977 130.781 29.6165 131.622 29.0653C132.463 28.5142 133.435 28.2386 134.537 28.2386C135.389 28.2386 136.063 28.3807 136.557 28.6648C137.057 28.9432 137.438 29.2614 137.699 29.6193C137.966 29.9716 138.173 30.2614 138.321 30.4886H138.491V24.0455H140.503V41.5H138.56V39.4886H138.321C138.173 39.7273 137.963 40.0284 137.69 40.392C137.418 40.75 137.028 41.071 136.523 41.3551C136.017 41.6335 135.344 41.7727 134.503 41.7727ZM134.776 39.9659C135.582 39.9659 136.264 39.7557 136.821 39.3352C137.378 38.9091 137.801 38.321 138.091 37.571C138.381 36.8153 138.526 35.9432 138.526 34.9545C138.526 33.9773 138.384 33.1222 138.099 32.3892C137.815 31.6506 137.395 31.0767 136.838 30.6676C136.281 30.2528 135.594 30.0455 134.776 30.0455C133.923 30.0455 133.213 30.2642 132.645 30.7017C132.082 31.1335 131.659 31.7216 131.375 32.4659C131.097 33.2045 130.957 34.0341 130.957 34.9545C130.957 35.8864 131.099 36.733 131.384 37.4943C131.673 38.25 132.099 38.8523 132.662 39.3011C133.23 39.7443 133.935 39.9659 134.776 39.9659ZM151.489 41.5V24.0455H153.5V30.4886H153.67C153.818 30.2614 154.023 29.9716 154.284 29.6193C154.551 29.2614 154.932 28.9432 155.426 28.6648C155.926 28.3807 156.602 28.2386 157.455 28.2386C158.557 28.2386 159.528 28.5142 160.369 29.0653C161.21 29.6165 161.866 30.3977 162.338 31.4091C162.81 32.4205 163.045 33.6136 163.045 34.9886C163.045 36.375 162.81 37.5767 162.338 38.5938C161.866 39.6051 161.213 40.3892 160.378 40.946C159.543 41.4972 158.58 41.7727 157.489 41.7727C156.648 41.7727 155.974 41.6335 155.469 41.3551C154.963 41.071 154.574 40.75 154.301 40.392C154.028 40.0284 153.818 39.7273 153.67 39.4886H153.432V41.5H151.489ZM153.466 34.9545C153.466 35.9432 153.611 36.8153 153.901 37.571C154.19 38.321 154.614 38.9091 155.17 39.3352C155.727 39.7557 156.409 39.9659 157.216 39.9659C158.057 39.9659 158.759 39.7443 159.321 39.3011C159.889 38.8523 160.315 38.25 160.599 37.4943C160.889 36.733 161.034 35.8864 161.034 34.9545C161.034 34.0341 160.892 33.2045 160.608 32.4659C160.33 31.7216 159.906 31.1335 159.338 30.7017C158.776 30.2642 158.068 30.0455 157.216 30.0455C156.398 30.0455 155.71 30.2528 155.153 30.6676C154.597 31.0767 154.176 31.6506 153.892 32.3892C153.608 33.1222 153.466 33.9773 153.466 34.9545ZM169.974 41.8068C169.145 41.8068 168.392 41.6506 167.716 41.3381C167.04 41.0199 166.503 40.5625 166.105 39.9659C165.707 39.3636 165.509 38.6364 165.509 37.7841C165.509 37.0341 165.656 36.4261 165.952 35.9602C166.247 35.4886 166.642 35.1193 167.136 34.8523C167.631 34.5852 168.176 34.3864 168.773 34.2557C169.375 34.1193 169.98 34.0114 170.588 33.9318C171.384 33.8295 172.028 33.7528 172.523 33.7017C173.023 33.6449 173.386 33.5511 173.614 33.4205C173.847 33.2898 173.963 33.0625 173.963 32.7386V32.6705C173.963 31.8295 173.733 31.1761 173.273 30.7102C172.818 30.2443 172.128 30.0114 171.202 30.0114C170.241 30.0114 169.489 30.2216 168.943 30.642C168.398 31.0625 168.014 31.5114 167.793 31.9886L165.884 31.3068C166.224 30.5114 166.679 29.892 167.247 29.4489C167.821 29 168.446 28.6875 169.122 28.5114C169.804 28.3295 170.474 28.2386 171.134 28.2386C171.554 28.2386 172.037 28.2898 172.582 28.392C173.134 28.4886 173.665 28.6903 174.176 28.9972C174.693 29.304 175.122 29.767 175.463 30.3864C175.804 31.0057 175.974 31.8352 175.974 32.875V41.5H173.963V39.7273H173.861C173.724 40.0114 173.497 40.3153 173.179 40.6392C172.861 40.9631 172.438 41.2386 171.909 41.4659C171.381 41.6932 170.736 41.8068 169.974 41.8068ZM170.281 40C171.077 40 171.747 39.8438 172.293 39.5312C172.844 39.2188 173.259 38.8153 173.537 38.321C173.821 37.8267 173.963 37.3068 173.963 36.7614V34.9205C173.878 35.0227 173.69 35.1165 173.401 35.2017C173.116 35.2812 172.787 35.3523 172.412 35.4148C172.043 35.4716 171.682 35.5227 171.33 35.5682C170.983 35.608 170.702 35.642 170.486 35.6705C169.963 35.7386 169.474 35.8494 169.02 36.0028C168.571 36.1506 168.207 36.375 167.929 36.6761C167.656 36.9716 167.52 37.375 167.52 37.8864C167.52 38.5852 167.778 39.1136 168.295 39.4716C168.818 39.8239 169.48 40 170.281 40ZM181.657 33.625V41.5H179.646V28.4091H181.589V30.4545H181.759C182.066 29.7898 182.532 29.2557 183.157 28.8523C183.782 28.4432 184.589 28.2386 185.577 28.2386C186.464 28.2386 187.239 28.4205 187.904 28.7841C188.569 29.142 189.086 29.6875 189.455 30.4205C189.825 31.1477 190.009 32.0682 190.009 33.1818V41.5H187.998V33.3182C187.998 32.2898 187.731 31.4886 187.197 30.9148C186.663 30.3352 185.93 30.0455 184.998 30.0455C184.356 30.0455 183.782 30.1847 183.276 30.4631C182.776 30.7415 182.381 31.1477 182.092 31.6818C181.802 32.2159 181.657 32.8636 181.657 33.625ZM195.56 36.7273L195.526 34.2386H195.935L201.662 28.4091H204.151L198.048 34.5795H197.878L195.56 36.7273ZM193.685 41.5V24.0455H195.696V41.5H193.685ZM202.003 41.5L196.889 35.0227L198.321 33.625L204.56 41.5H202.003ZM217.342 41.8068C216.512 41.8068 215.759 41.6506 215.083 41.3381C214.407 41.0199 213.87 40.5625 213.472 39.9659C213.075 39.3636 212.876 38.6364 212.876 37.7841C212.876 37.0341 213.023 36.4261 213.319 35.9602C213.614 35.4886 214.009 35.1193 214.504 34.8523C214.998 34.5852 215.543 34.3864 216.14 34.2557C216.742 34.1193 217.347 34.0114 217.955 33.9318C218.751 33.8295 219.396 33.7528 219.89 33.7017C220.39 33.6449 220.754 33.5511 220.981 33.4205C221.214 33.2898 221.33 33.0625 221.33 32.7386V32.6705C221.33 31.8295 221.1 31.1761 220.64 30.7102C220.185 30.2443 219.495 30.0114 218.569 30.0114C217.609 30.0114 216.856 30.2216 216.31 30.642C215.765 31.0625 215.381 31.5114 215.16 31.9886L213.251 31.3068C213.592 30.5114 214.046 29.892 214.614 29.4489C215.188 29 215.813 28.6875 216.489 28.5114C217.171 28.3295 217.842 28.2386 218.501 28.2386C218.921 28.2386 219.404 28.2898 219.95 28.392C220.501 28.4886 221.032 28.6903 221.543 28.9972C222.06 29.304 222.489 29.767 222.83 30.3864C223.171 31.0057 223.342 31.8352 223.342 32.875V41.5H221.33V39.7273H221.228C221.092 40.0114 220.864 40.3153 220.546 40.6392C220.228 40.9631 219.805 41.2386 219.276 41.4659C218.748 41.6932 218.103 41.8068 217.342 41.8068ZM217.648 40C218.444 40 219.114 39.8438 219.66 39.5312C220.211 39.2188 220.626 38.8153 220.904 38.321C221.188 37.8267 221.33 37.3068 221.33 36.7614V34.9205C221.245 35.0227 221.058 35.1165 220.768 35.2017C220.484 35.2812 220.154 35.3523 219.779 35.4148C219.41 35.4716 219.049 35.5227 218.697 35.5682C218.35 35.608 218.069 35.642 217.853 35.6705C217.33 35.7386 216.842 35.8494 216.387 36.0028C215.938 36.1506 215.575 36.375 215.296 36.6761C215.023 36.9716 214.887 37.375 214.887 37.8864C214.887 38.5852 215.146 39.1136 215.663 39.4716C216.185 39.8239 216.847 40 217.648 40ZM232.331 41.7727C231.104 41.7727 230.047 41.483 229.161 40.9034C228.274 40.3239 227.592 39.5256 227.115 38.5085C226.638 37.4915 226.399 36.3295 226.399 35.0227C226.399 33.6932 226.643 32.5199 227.132 31.5028C227.626 30.4801 228.314 29.6818 229.195 29.108C230.081 28.5284 231.115 28.2386 232.297 28.2386C233.217 28.2386 234.047 28.4091 234.786 28.75C235.524 29.0909 236.129 29.5682 236.601 30.1818C237.072 30.7955 237.365 31.5114 237.479 32.3295H235.467C235.314 31.733 234.973 31.2045 234.445 30.7443C233.922 30.2784 233.217 30.0455 232.331 30.0455C231.547 30.0455 230.859 30.25 230.268 30.6591C229.683 31.0625 229.226 31.6335 228.896 32.3722C228.572 33.1051 228.411 33.9659 228.411 34.9545C228.411 35.9659 228.57 36.8466 228.888 37.5966C229.212 38.3466 229.666 38.929 230.251 39.3438C230.842 39.7585 231.536 39.9659 232.331 39.9659C232.854 39.9659 233.328 39.875 233.754 39.6932C234.18 39.5114 234.541 39.25 234.837 38.9091C235.132 38.5682 235.342 38.1591 235.467 37.6818H237.479C237.365 38.4545 237.084 39.1506 236.635 39.7699C236.192 40.3835 235.604 40.8722 234.871 41.2358C234.143 41.5938 233.297 41.7727 232.331 41.7727ZM245.737 41.7727C244.51 41.7727 243.453 41.483 242.567 40.9034C241.68 40.3239 240.999 39.5256 240.521 38.5085C240.044 37.4915 239.805 36.3295 239.805 35.0227C239.805 33.6932 240.05 32.5199 240.538 31.5028C241.033 30.4801 241.72 29.6818 242.601 29.108C243.487 28.5284 244.521 28.2386 245.703 28.2386C246.624 28.2386 247.453 28.4091 248.192 28.75C248.93 29.0909 249.536 29.5682 250.007 30.1818C250.479 30.7955 250.771 31.5114 250.885 32.3295H248.874C248.72 31.733 248.379 31.2045 247.851 30.7443C247.328 30.2784 246.624 30.0455 245.737 30.0455C244.953 30.0455 244.266 30.25 243.675 30.6591C243.089 31.0625 242.632 31.6335 242.303 32.3722C241.979 33.1051 241.817 33.9659 241.817 34.9545C241.817 35.9659 241.976 36.8466 242.294 37.5966C242.618 38.3466 243.072 38.929 243.658 39.3438C244.249 39.7585 244.942 39.9659 245.737 39.9659C246.26 39.9659 246.734 39.875 247.161 39.6932C247.587 39.5114 247.947 39.25 248.243 38.9091C248.538 38.5682 248.749 38.1591 248.874 37.6818H250.885C250.771 38.4545 250.49 39.1506 250.041 39.7699C249.598 40.3835 249.01 40.8722 248.277 41.2358C247.55 41.5938 246.703 41.7727 245.737 41.7727ZM259.143 41.7727C257.962 41.7727 256.925 41.4915 256.033 40.929C255.146 40.3665 254.453 39.5795 253.953 38.5682C253.459 37.5568 253.212 36.375 253.212 35.0227C253.212 33.6591 253.459 32.4687 253.953 31.4517C254.453 30.4347 255.146 29.6449 256.033 29.0824C256.925 28.5199 257.962 28.2386 259.143 28.2386C260.325 28.2386 261.359 28.5199 262.246 29.0824C263.138 29.6449 263.831 30.4347 264.325 31.4517C264.825 32.4687 265.075 33.6591 265.075 35.0227C265.075 36.375 264.825 37.5568 264.325 38.5682C263.831 39.5795 263.138 40.3665 262.246 40.929C261.359 41.4915 260.325 41.7727 259.143 41.7727ZM259.143 39.9659C260.041 39.9659 260.78 39.7358 261.359 39.2756C261.939 38.8153 262.368 38.2102 262.646 37.4602C262.925 36.7102 263.064 35.8977 263.064 35.0227C263.064 34.1477 262.925 33.3324 262.646 32.5767C262.368 31.821 261.939 31.2102 261.359 30.7443C260.78 30.2784 260.041 30.0455 259.143 30.0455C258.246 30.0455 257.507 30.2784 256.928 30.7443C256.348 31.2102 255.919 31.821 255.641 32.5767C255.362 33.3324 255.223 34.1477 255.223 35.0227C255.223 35.8977 255.362 36.7102 255.641 37.4602C255.919 38.2102 256.348 38.8153 256.928 39.2756C257.507 39.7358 258.246 39.9659 259.143 39.9659ZM276.396 36.1477V28.4091H278.407V41.5H276.396V39.2841H276.259C275.952 39.9489 275.475 40.5142 274.827 40.9801C274.18 41.4403 273.362 41.6705 272.373 41.6705C271.555 41.6705 270.827 41.4915 270.191 41.1335C269.555 40.7699 269.055 40.2244 268.691 39.4972C268.327 38.7642 268.146 37.8409 268.146 36.7273V28.4091H270.157V36.5909C270.157 37.5455 270.424 38.3068 270.958 38.875C271.498 39.4432 272.185 39.7273 273.021 39.7273C273.521 39.7273 274.029 39.5994 274.546 39.3438C275.069 39.0881 275.506 38.696 275.859 38.1676C276.217 37.6392 276.396 36.9659 276.396 36.1477ZM284.102 33.625V41.5H282.091V28.4091H284.034V30.4545H284.205C284.511 29.7898 284.977 29.2557 285.602 28.8523C286.227 28.4432 287.034 28.2386 288.023 28.2386C288.909 28.2386 289.685 28.4205 290.349 28.7841C291.014 29.142 291.531 29.6875 291.901 30.4205C292.27 31.1477 292.455 32.0682 292.455 33.1818V41.5H290.443V33.3182C290.443 32.2898 290.176 31.4886 289.642 30.9148C289.108 30.3352 288.375 30.0455 287.443 30.0455C286.801 30.0455 286.227 30.1847 285.722 30.4631C285.222 30.7415 284.827 31.1477 284.537 31.6818C284.247 32.2159 284.102 32.8636 284.102 33.625ZM301.823 28.4091V30.1136H295.039V28.4091H301.823ZM297.016 25.2727H299.028V37.75C299.028 38.3182 299.11 38.7443 299.275 39.0284C299.445 39.3068 299.661 39.4943 299.923 39.5909C300.19 39.6818 300.471 39.7273 300.766 39.7273C300.988 39.7273 301.17 39.7159 301.312 39.6932C301.454 39.6648 301.567 39.642 301.653 39.625L302.062 41.4318C301.925 41.483 301.735 41.5341 301.491 41.5852C301.246 41.642 300.937 41.6705 300.562 41.6705C299.994 41.6705 299.437 41.5483 298.891 41.304C298.352 41.0597 297.903 40.6875 297.545 40.1875C297.192 39.6875 297.016 39.0568 297.016 38.2955V25.2727Z" fill="#F2F0EA"/>
<rect y="180" width="405" height="66" rx="33" fill="#F25700"/>
<path d="M33.4167 224.5H37.25V201.5H33.4167V224.5ZM41.0833 232.167H44.9167V193.833H41.0833V232.167ZM25.75 216.833H29.5833V209.167H25.75V216.833ZM48.75 224.5H52.5833V201.5H48.75V224.5ZM56.4167 209.167V216.833H60.25V209.167H56.4167Z" fill="#F2F0EA"/>
<path d="M82.2273 204.045V221.5H80.1136V204.045H82.2273ZM88.2038 213.625V221.5H86.1925V208.409H88.1357V210.455H88.3061C88.6129 209.79 89.0788 209.256 89.7038 208.852C90.3288 208.443 91.1357 208.239 92.1243 208.239C93.0107 208.239 93.7862 208.42 94.451 208.784C95.1158 209.142 95.6328 209.688 96.0021 210.42C96.3714 211.148 96.5561 212.068 96.5561 213.182V221.5H94.5447V213.318C94.5447 212.29 94.2777 211.489 93.7436 210.915C93.2095 210.335 92.4766 210.045 91.5447 210.045C90.9027 210.045 90.3288 210.185 89.8232 210.463C89.3232 210.741 88.9283 211.148 88.6385 211.682C88.3487 212.216 88.2038 212.864 88.2038 213.625ZM105.55 221.773C104.322 221.773 103.266 221.483 102.379 220.903C101.493 220.324 100.811 219.526 100.334 218.509C99.8565 217.491 99.6179 216.33 99.6179 215.023C99.6179 213.693 99.8622 212.52 100.351 211.503C100.845 210.48 101.533 209.682 102.413 209.108C103.3 208.528 104.334 208.239 105.516 208.239C106.436 208.239 107.266 208.409 108.004 208.75C108.743 209.091 109.348 209.568 109.82 210.182C110.291 210.795 110.584 211.511 110.697 212.33H108.686C108.533 211.733 108.192 211.205 107.663 210.744C107.141 210.278 106.436 210.045 105.55 210.045C104.766 210.045 104.078 210.25 103.487 210.659C102.902 211.062 102.445 211.634 102.115 212.372C101.791 213.105 101.629 213.966 101.629 214.955C101.629 215.966 101.788 216.847 102.107 217.597C102.43 218.347 102.885 218.929 103.47 219.344C104.061 219.759 104.754 219.966 105.55 219.966C106.072 219.966 106.547 219.875 106.973 219.693C107.399 219.511 107.76 219.25 108.055 218.909C108.351 218.568 108.561 218.159 108.686 217.682H110.697C110.584 218.455 110.303 219.151 109.854 219.77C109.411 220.384 108.822 220.872 108.089 221.236C107.362 221.594 106.516 221.773 105.55 221.773ZM113.638 221.5V208.409H115.581V210.386H115.717C115.956 209.739 116.388 209.213 117.013 208.81C117.638 208.406 118.342 208.205 119.126 208.205C119.274 208.205 119.459 208.207 119.68 208.213C119.902 208.219 120.07 208.227 120.183 208.239V210.284C120.115 210.267 119.959 210.241 119.714 210.207C119.476 210.168 119.223 210.148 118.956 210.148C118.32 210.148 117.751 210.281 117.251 210.548C116.757 210.81 116.365 211.173 116.075 211.639C115.791 212.099 115.649 212.625 115.649 213.216V221.5H113.638ZM127.658 221.773C126.396 221.773 125.308 221.494 124.393 220.938C123.484 220.375 122.783 219.591 122.288 218.585C121.8 217.574 121.555 216.398 121.555 215.057C121.555 213.716 121.8 212.534 122.288 211.511C122.783 210.483 123.47 209.682 124.351 209.108C125.237 208.528 126.271 208.239 127.453 208.239C128.135 208.239 128.808 208.352 129.473 208.58C130.138 208.807 130.743 209.176 131.288 209.688C131.834 210.193 132.268 210.864 132.592 211.699C132.916 212.534 133.078 213.562 133.078 214.784V215.636H122.987V213.898H131.033C131.033 213.159 130.885 212.5 130.589 211.92C130.3 211.341 129.885 210.884 129.345 210.548C128.811 210.213 128.18 210.045 127.453 210.045C126.652 210.045 125.959 210.244 125.374 210.642C124.794 211.034 124.348 211.545 124.036 212.176C123.723 212.807 123.567 213.483 123.567 214.205V215.364C123.567 216.352 123.737 217.19 124.078 217.878C124.425 218.56 124.905 219.08 125.518 219.438C126.132 219.79 126.845 219.966 127.658 219.966C128.186 219.966 128.663 219.892 129.089 219.744C129.521 219.591 129.893 219.364 130.206 219.062C130.518 218.756 130.76 218.375 130.93 217.92L132.874 218.466C132.669 219.125 132.325 219.705 131.842 220.205C131.359 220.699 130.763 221.085 130.053 221.364C129.342 221.636 128.544 221.773 127.658 221.773ZM139.99 221.807C139.161 221.807 138.408 221.651 137.732 221.338C137.055 221.02 136.518 220.562 136.121 219.966C135.723 219.364 135.524 218.636 135.524 217.784C135.524 217.034 135.672 216.426 135.967 215.96C136.263 215.489 136.658 215.119 137.152 214.852C137.646 214.585 138.192 214.386 138.788 214.256C139.391 214.119 139.996 214.011 140.604 213.932C141.399 213.83 142.044 213.753 142.538 213.702C143.038 213.645 143.402 213.551 143.629 213.42C143.862 213.29 143.979 213.062 143.979 212.739V212.67C143.979 211.83 143.749 211.176 143.288 210.71C142.834 210.244 142.143 210.011 141.217 210.011C140.257 210.011 139.504 210.222 138.959 210.642C138.413 211.062 138.03 211.511 137.808 211.989L135.899 211.307C136.24 210.511 136.695 209.892 137.263 209.449C137.837 209 138.462 208.687 139.138 208.511C139.82 208.33 140.49 208.239 141.149 208.239C141.57 208.239 142.053 208.29 142.598 208.392C143.149 208.489 143.68 208.69 144.192 208.997C144.709 209.304 145.138 209.767 145.479 210.386C145.82 211.006 145.99 211.835 145.99 212.875V221.5H143.979V219.727H143.876C143.74 220.011 143.513 220.315 143.195 220.639C142.876 220.963 142.453 221.239 141.925 221.466C141.396 221.693 140.751 221.807 139.99 221.807ZM140.297 220C141.092 220 141.763 219.844 142.308 219.531C142.859 219.219 143.274 218.815 143.553 218.321C143.837 217.827 143.979 217.307 143.979 216.761V214.92C143.893 215.023 143.706 215.116 143.416 215.202C143.132 215.281 142.803 215.352 142.428 215.415C142.058 215.472 141.697 215.523 141.345 215.568C140.999 215.608 140.717 215.642 140.501 215.67C139.979 215.739 139.49 215.849 139.036 216.003C138.587 216.151 138.223 216.375 137.945 216.676C137.672 216.972 137.536 217.375 137.536 217.886C137.536 218.585 137.794 219.114 138.311 219.472C138.834 219.824 139.496 220 140.297 220ZM158.934 211.341L157.127 211.852C157.013 211.551 156.846 211.259 156.624 210.974C156.408 210.685 156.113 210.446 155.738 210.259C155.363 210.071 154.883 209.977 154.298 209.977C153.496 209.977 152.829 210.162 152.295 210.531C151.766 210.895 151.502 211.358 151.502 211.92C151.502 212.42 151.684 212.815 152.048 213.105C152.411 213.395 152.979 213.636 153.752 213.83L155.695 214.307C156.866 214.591 157.738 215.026 158.312 215.611C158.886 216.19 159.173 216.937 159.173 217.852C159.173 218.602 158.957 219.273 158.525 219.864C158.099 220.455 157.502 220.92 156.735 221.261C155.968 221.602 155.076 221.773 154.059 221.773C152.724 221.773 151.619 221.483 150.744 220.903C149.869 220.324 149.315 219.477 149.082 218.364L150.991 217.886C151.173 218.591 151.516 219.119 152.022 219.472C152.533 219.824 153.201 220 154.025 220C154.962 220 155.707 219.801 156.258 219.403C156.815 219 157.093 218.517 157.093 217.955C157.093 217.5 156.934 217.119 156.616 216.812C156.298 216.5 155.809 216.267 155.15 216.114L152.968 215.602C151.769 215.318 150.888 214.878 150.326 214.281C149.769 213.679 149.491 212.926 149.491 212.023C149.491 211.284 149.698 210.631 150.113 210.062C150.533 209.494 151.104 209.048 151.826 208.724C152.553 208.401 153.377 208.239 154.298 208.239C155.593 208.239 156.61 208.523 157.349 209.091C158.093 209.659 158.621 210.409 158.934 211.341ZM167.689 221.773C166.428 221.773 165.339 221.494 164.425 220.938C163.516 220.375 162.814 219.591 162.32 218.585C161.831 217.574 161.587 216.398 161.587 215.057C161.587 213.716 161.831 212.534 162.32 211.511C162.814 210.483 163.501 209.682 164.382 209.108C165.268 208.528 166.303 208.239 167.484 208.239C168.166 208.239 168.839 208.352 169.504 208.58C170.169 208.807 170.774 209.176 171.32 209.688C171.865 210.193 172.3 210.864 172.624 211.699C172.947 212.534 173.109 213.562 173.109 214.784V215.636H163.018V213.898H171.064C171.064 213.159 170.916 212.5 170.621 211.92C170.331 211.341 169.916 210.884 169.376 210.548C168.842 210.213 168.212 210.045 167.484 210.045C166.683 210.045 165.99 210.244 165.405 210.642C164.825 211.034 164.379 211.545 164.067 212.176C163.754 212.807 163.598 213.483 163.598 214.205V215.364C163.598 216.352 163.768 217.19 164.109 217.878C164.456 218.56 164.936 219.08 165.55 219.438C166.163 219.79 166.876 219.966 167.689 219.966C168.217 219.966 168.695 219.892 169.121 219.744C169.553 219.591 169.925 219.364 170.237 219.062C170.55 218.756 170.791 218.375 170.962 217.92L172.905 218.466C172.7 219.125 172.357 219.705 171.874 220.205C171.391 220.699 170.794 221.085 170.084 221.364C169.374 221.636 168.575 221.773 167.689 221.773ZM181.112 221.773C180.021 221.773 179.058 221.497 178.223 220.946C177.388 220.389 176.734 219.605 176.263 218.594C175.791 217.577 175.555 216.375 175.555 214.989C175.555 213.614 175.791 212.42 176.263 211.409C176.734 210.398 177.391 209.616 178.232 209.065C179.072 208.514 180.044 208.239 181.146 208.239C181.999 208.239 182.672 208.381 183.166 208.665C183.666 208.943 184.047 209.261 184.308 209.619C184.575 209.972 184.783 210.261 184.93 210.489H185.101V204.045H187.112V221.5H185.169V219.489H184.93C184.783 219.727 184.572 220.028 184.3 220.392C184.027 220.75 183.638 221.071 183.132 221.355C182.626 221.634 181.953 221.773 181.112 221.773ZM181.385 219.966C182.192 219.966 182.874 219.756 183.43 219.335C183.987 218.909 184.411 218.321 184.7 217.571C184.99 216.815 185.135 215.943 185.135 214.955C185.135 213.977 184.993 213.122 184.709 212.389C184.425 211.651 184.004 211.077 183.447 210.668C182.891 210.253 182.203 210.045 181.385 210.045C180.533 210.045 179.822 210.264 179.254 210.702C178.692 211.134 178.268 211.722 177.984 212.466C177.706 213.205 177.567 214.034 177.567 214.955C177.567 215.886 177.709 216.733 177.993 217.494C178.283 218.25 178.709 218.852 179.271 219.301C179.839 219.744 180.544 219.966 181.385 219.966ZM203.518 208.409V210.114H196.734V208.409H203.518ZM198.712 205.273H200.723V217.75C200.723 218.318 200.805 218.744 200.97 219.028C201.141 219.307 201.357 219.494 201.618 219.591C201.885 219.682 202.166 219.727 202.462 219.727C202.683 219.727 202.865 219.716 203.007 219.693C203.149 219.665 203.263 219.642 203.348 219.625L203.757 221.432C203.621 221.483 203.43 221.534 203.186 221.585C202.942 221.642 202.632 221.67 202.257 221.67C201.689 221.67 201.132 221.548 200.587 221.304C200.047 221.06 199.598 220.688 199.24 220.188C198.888 219.688 198.712 219.057 198.712 218.295V205.273ZM211.892 221.773C210.631 221.773 209.543 221.494 208.628 220.938C207.719 220.375 207.017 219.591 206.523 218.585C206.034 217.574 205.79 216.398 205.79 215.057C205.79 213.716 206.034 212.534 206.523 211.511C207.017 210.483 207.705 209.682 208.585 209.108C209.472 208.528 210.506 208.239 211.688 208.239C212.369 208.239 213.043 208.352 213.707 208.58C214.372 208.807 214.977 209.176 215.523 209.688C216.068 210.193 216.503 210.864 216.827 211.699C217.151 212.534 217.312 213.562 217.312 214.784V215.636H207.222V213.898H215.267C215.267 213.159 215.119 212.5 214.824 211.92C214.534 211.341 214.119 210.884 213.58 210.548C213.045 210.213 212.415 210.045 211.688 210.045C210.886 210.045 210.193 210.244 209.608 210.642C209.028 211.034 208.582 211.545 208.27 212.176C207.957 212.807 207.801 213.483 207.801 214.205V215.364C207.801 216.352 207.972 217.19 208.312 217.878C208.659 218.56 209.139 219.08 209.753 219.438C210.366 219.79 211.08 219.966 211.892 219.966C212.42 219.966 212.898 219.892 213.324 219.744C213.756 219.591 214.128 219.364 214.44 219.062C214.753 218.756 214.994 218.375 215.165 217.92L217.108 218.466C216.903 219.125 216.56 219.705 216.077 220.205C215.594 220.699 214.997 221.085 214.287 221.364C213.577 221.636 212.778 221.773 211.892 221.773ZM224.224 221.807C223.395 221.807 222.642 221.651 221.966 221.338C221.29 221.02 220.753 220.562 220.355 219.966C219.957 219.364 219.759 218.636 219.759 217.784C219.759 217.034 219.906 216.426 220.202 215.96C220.497 215.489 220.892 215.119 221.386 214.852C221.881 214.585 222.426 214.386 223.023 214.256C223.625 214.119 224.23 214.011 224.838 213.932C225.634 213.83 226.278 213.753 226.773 213.702C227.273 213.645 227.636 213.551 227.864 213.42C228.097 213.29 228.213 213.062 228.213 212.739V212.67C228.213 211.83 227.983 211.176 227.523 210.71C227.068 210.244 226.378 210.011 225.452 210.011C224.491 210.011 223.739 210.222 223.193 210.642C222.648 211.062 222.264 211.511 222.043 211.989L220.134 211.307C220.474 210.511 220.929 209.892 221.497 209.449C222.071 209 222.696 208.687 223.372 208.511C224.054 208.33 224.724 208.239 225.384 208.239C225.804 208.239 226.287 208.29 226.832 208.392C227.384 208.489 227.915 208.69 228.426 208.997C228.943 209.304 229.372 209.767 229.713 210.386C230.054 211.006 230.224 211.835 230.224 212.875V221.5H228.213V219.727H228.111C227.974 220.011 227.747 220.315 227.429 220.639C227.111 220.963 226.688 221.239 226.159 221.466C225.631 221.693 224.986 221.807 224.224 221.807ZM224.531 220C225.327 220 225.997 219.844 226.543 219.531C227.094 219.219 227.509 218.815 227.787 218.321C228.071 217.827 228.213 217.307 228.213 216.761V214.92C228.128 215.023 227.94 215.116 227.651 215.202C227.366 215.281 227.037 215.352 226.662 215.415C226.293 215.472 225.932 215.523 225.58 215.568C225.233 215.608 224.952 215.642 224.736 215.67C224.213 215.739 223.724 215.849 223.27 216.003C222.821 216.151 222.457 216.375 222.179 216.676C221.906 216.972 221.77 217.375 221.77 217.886C221.77 218.585 222.028 219.114 222.545 219.472C223.068 219.824 223.73 220 224.531 220ZM239.214 221.773C237.987 221.773 236.93 221.483 236.043 220.903C235.157 220.324 234.475 219.526 233.998 218.509C233.521 217.491 233.282 216.33 233.282 215.023C233.282 213.693 233.526 212.52 234.015 211.503C234.509 210.48 235.197 209.682 236.077 209.108C236.964 208.528 237.998 208.239 239.18 208.239C240.1 208.239 240.93 208.409 241.668 208.75C242.407 209.091 243.012 209.568 243.484 210.182C243.955 210.795 244.248 211.511 244.362 212.33H242.35C242.197 211.733 241.856 211.205 241.327 210.744C240.805 210.278 240.1 210.045 239.214 210.045C238.43 210.045 237.742 210.25 237.151 210.659C236.566 211.062 236.109 211.634 235.779 212.372C235.455 213.105 235.293 213.966 235.293 214.955C235.293 215.966 235.452 216.847 235.771 217.597C236.094 218.347 236.549 218.929 237.134 219.344C237.725 219.759 238.418 219.966 239.214 219.966C239.737 219.966 240.211 219.875 240.637 219.693C241.063 219.511 241.424 219.25 241.719 218.909C242.015 218.568 242.225 218.159 242.35 217.682H244.362C244.248 218.455 243.967 219.151 243.518 219.77C243.075 220.384 242.487 220.872 241.754 221.236C241.026 221.594 240.18 221.773 239.214 221.773ZM249.313 213.625V221.5H247.302V204.045H249.313V210.455H249.484C249.79 209.778 250.251 209.241 250.864 208.844C251.484 208.44 252.308 208.239 253.336 208.239C254.228 208.239 255.009 208.418 255.68 208.776C256.35 209.128 256.87 209.67 257.239 210.403C257.614 211.131 257.802 212.057 257.802 213.182V221.5H255.79V213.318C255.79 212.278 255.521 211.474 254.981 210.906C254.447 210.332 253.705 210.045 252.756 210.045C252.097 210.045 251.506 210.185 250.984 210.463C250.467 210.741 250.058 211.148 249.756 211.682C249.461 212.216 249.313 212.864 249.313 213.625ZM261.482 221.5V208.409H263.493V221.5H261.482ZM262.504 206.227C262.112 206.227 261.774 206.094 261.49 205.827C261.212 205.56 261.072 205.239 261.072 204.864C261.072 204.489 261.212 204.168 261.49 203.901C261.774 203.634 262.112 203.5 262.504 203.5C262.896 203.5 263.232 203.634 263.51 203.901C263.794 204.168 263.936 204.489 263.936 204.864C263.936 205.239 263.794 205.56 263.51 205.827C263.232 206.094 262.896 206.227 262.504 206.227ZM269.188 213.625V221.5H267.177V208.409H269.12V210.455H269.29C269.597 209.79 270.063 209.256 270.688 208.852C271.313 208.443 272.12 208.239 273.109 208.239C273.995 208.239 274.771 208.42 275.435 208.784C276.1 209.142 276.617 209.688 276.987 210.42C277.356 211.148 277.54 212.068 277.54 213.182V221.5H275.529V213.318C275.529 212.29 275.262 211.489 274.728 210.915C274.194 210.335 273.461 210.045 272.529 210.045C271.887 210.045 271.313 210.185 270.808 210.463C270.308 210.741 269.913 211.148 269.623 211.682C269.333 212.216 269.188 212.864 269.188 213.625ZM286.5 226.682C285.528 226.682 284.693 226.557 283.994 226.307C283.295 226.062 282.713 225.739 282.247 225.335C281.787 224.938 281.42 224.511 281.148 224.057L282.75 222.932C282.932 223.17 283.162 223.443 283.44 223.75C283.719 224.062 284.099 224.332 284.582 224.56C285.071 224.793 285.71 224.909 286.5 224.909C287.557 224.909 288.429 224.653 289.116 224.142C289.804 223.631 290.148 222.83 290.148 221.739V219.08H289.977C289.83 219.318 289.619 219.614 289.347 219.966C289.08 220.312 288.693 220.622 288.188 220.895C287.688 221.162 287.011 221.295 286.159 221.295C285.102 221.295 284.153 221.045 283.312 220.545C282.477 220.045 281.815 219.318 281.327 218.364C280.844 217.409 280.602 216.25 280.602 214.886C280.602 213.545 280.838 212.378 281.31 211.384C281.781 210.384 282.438 209.611 283.278 209.065C284.119 208.514 285.091 208.239 286.193 208.239C287.045 208.239 287.722 208.381 288.222 208.665C288.727 208.943 289.114 209.261 289.381 209.619C289.653 209.972 289.864 210.261 290.011 210.489H290.216V208.409H292.159V221.875C292.159 223 291.903 223.915 291.392 224.619C290.886 225.33 290.205 225.849 289.347 226.179C288.494 226.514 287.545 226.682 286.5 226.682ZM286.432 219.489C287.239 219.489 287.92 219.304 288.477 218.935C289.034 218.565 289.457 218.034 289.747 217.341C290.037 216.648 290.182 215.818 290.182 214.852C290.182 213.909 290.04 213.077 289.756 212.355C289.472 211.634 289.051 211.068 288.494 210.659C287.938 210.25 287.25 210.045 286.432 210.045C285.58 210.045 284.869 210.261 284.301 210.693C283.739 211.125 283.315 211.705 283.031 212.432C282.753 213.159 282.614 213.966 282.614 214.852C282.614 215.761 282.756 216.565 283.04 217.264C283.33 217.957 283.756 218.503 284.318 218.901C284.886 219.293 285.591 219.489 286.432 219.489ZM302.591 221.5V208.409H304.534V210.455H304.705C304.977 209.756 305.418 209.213 306.026 208.827C306.634 208.435 307.364 208.239 308.216 208.239C309.08 208.239 309.798 208.435 310.372 208.827C310.952 209.213 311.403 209.756 311.727 210.455H311.864C312.199 209.778 312.702 209.241 313.372 208.844C314.043 208.44 314.847 208.239 315.784 208.239C316.955 208.239 317.912 208.605 318.656 209.338C319.401 210.065 319.773 211.199 319.773 212.739V221.5H317.761V212.739C317.761 211.773 317.497 211.082 316.969 210.668C316.44 210.253 315.818 210.045 315.102 210.045C314.182 210.045 313.469 210.324 312.963 210.881C312.457 211.432 312.205 212.131 312.205 212.977V221.5H310.159V212.534C310.159 211.79 309.918 211.19 309.435 210.736C308.952 210.276 308.33 210.045 307.568 210.045C307.045 210.045 306.557 210.185 306.102 210.463C305.653 210.741 305.29 211.128 305.011 211.622C304.739 212.111 304.602 212.676 304.602 213.318V221.5H302.591ZM328.939 221.773C327.678 221.773 326.589 221.494 325.675 220.938C324.766 220.375 324.064 219.591 323.57 218.585C323.081 217.574 322.837 216.398 322.837 215.057C322.837 213.716 323.081 212.534 323.57 211.511C324.064 210.483 324.751 209.682 325.632 209.108C326.518 208.528 327.553 208.239 328.734 208.239C329.416 208.239 330.089 208.352 330.754 208.58C331.419 208.807 332.024 209.176 332.57 209.688C333.115 210.193 333.55 210.864 333.874 211.699C334.197 212.534 334.359 213.562 334.359 214.784V215.636H324.268V213.898H332.314C332.314 213.159 332.166 212.5 331.871 211.92C331.581 211.341 331.166 210.884 330.626 210.548C330.092 210.213 329.462 210.045 328.734 210.045C327.933 210.045 327.24 210.244 326.655 210.642C326.075 211.034 325.629 211.545 325.317 212.176C325.004 212.807 324.848 213.483 324.848 214.205V215.364C324.848 216.352 325.018 217.19 325.359 217.878C325.706 218.56 326.186 219.08 326.8 219.438C327.413 219.79 328.126 219.966 328.939 219.966C329.467 219.966 329.945 219.892 330.371 219.744C330.803 219.591 331.175 219.364 331.487 219.062C331.8 218.756 332.041 218.375 332.212 217.92L334.155 218.466C333.95 219.125 333.607 219.705 333.124 220.205C332.641 220.699 332.044 221.085 331.334 221.364C330.624 221.636 329.825 221.773 328.939 221.773ZM343.112 208.409V210.114H336.328V208.409H343.112ZM338.305 205.273H340.317V217.75C340.317 218.318 340.399 218.744 340.564 219.028C340.734 219.307 340.95 219.494 341.212 219.591C341.479 219.682 341.76 219.727 342.055 219.727C342.277 219.727 342.459 219.716 342.601 219.693C342.743 219.665 342.857 219.642 342.942 219.625L343.351 221.432C343.214 221.483 343.024 221.534 342.78 221.585C342.536 221.642 342.226 221.67 341.851 221.67C341.283 221.67 340.726 221.548 340.18 221.304C339.641 221.06 339.192 220.688 338.834 220.188C338.482 219.688 338.305 219.057 338.305 218.295V205.273ZM346.138 221.5V208.409H348.081V210.386H348.217C348.456 209.739 348.888 209.213 349.513 208.81C350.138 208.406 350.842 208.205 351.626 208.205C351.774 208.205 351.959 208.207 352.18 208.213C352.402 208.219 352.57 208.227 352.683 208.239V210.284C352.615 210.267 352.459 210.241 352.214 210.207C351.976 210.168 351.723 210.148 351.456 210.148C350.82 210.148 350.251 210.281 349.751 210.548C349.257 210.81 348.865 211.173 348.575 211.639C348.291 212.099 348.149 212.625 348.149 213.216V221.5H346.138ZM355.067 221.5V208.409H357.079V221.5H355.067ZM356.09 206.227C355.698 206.227 355.36 206.094 355.076 205.827C354.798 205.56 354.658 205.239 354.658 204.864C354.658 204.489 354.798 204.168 355.076 203.901C355.36 203.634 355.698 203.5 356.09 203.5C356.482 203.5 356.817 203.634 357.096 203.901C357.38 204.168 357.522 204.489 357.522 204.864C357.522 205.239 357.38 205.56 357.096 205.827C356.817 206.094 356.482 206.227 356.09 206.227ZM366.081 221.773C364.854 221.773 363.797 221.483 362.911 220.903C362.024 220.324 361.342 219.526 360.865 218.509C360.388 217.491 360.149 216.33 360.149 215.023C360.149 213.693 360.393 212.52 360.882 211.503C361.376 210.48 362.064 209.682 362.945 209.108C363.831 208.528 364.865 208.239 366.047 208.239C366.967 208.239 367.797 208.409 368.536 208.75C369.274 209.091 369.879 209.568 370.351 210.182C370.822 210.795 371.115 211.511 371.229 212.33H369.217C369.064 211.733 368.723 211.205 368.195 210.744C367.672 210.278 366.967 210.045 366.081 210.045C365.297 210.045 364.609 210.25 364.018 210.659C363.433 211.062 362.976 211.634 362.646 212.372C362.322 213.105 362.161 213.966 362.161 214.955C362.161 215.966 362.32 216.847 362.638 217.597C362.962 218.347 363.416 218.929 364.001 219.344C364.592 219.759 365.286 219.966 366.081 219.966C366.604 219.966 367.078 219.875 367.504 219.693C367.93 219.511 368.291 219.25 368.587 218.909C368.882 218.568 369.092 218.159 369.217 217.682H371.229C371.115 218.455 370.834 219.151 370.385 219.77C369.942 220.384 369.354 220.872 368.621 221.236C367.893 221.594 367.047 221.773 366.081 221.773ZM383.442 211.341L381.635 211.852C381.521 211.551 381.354 211.259 381.132 210.974C380.916 210.685 380.621 210.446 380.246 210.259C379.871 210.071 379.391 209.977 378.805 209.977C378.004 209.977 377.337 210.162 376.803 210.531C376.274 210.895 376.01 211.358 376.01 211.92C376.01 212.42 376.192 212.815 376.555 213.105C376.919 213.395 377.487 213.636 378.26 213.83L380.203 214.307C381.374 214.591 382.246 215.026 382.82 215.611C383.393 216.19 383.68 216.937 383.68 217.852C383.68 218.602 383.464 219.273 383.033 219.864C382.607 220.455 382.01 220.92 381.243 221.261C380.476 221.602 379.584 221.773 378.567 221.773C377.232 221.773 376.126 221.483 375.251 220.903C374.376 220.324 373.822 219.477 373.589 218.364L375.499 217.886C375.68 218.591 376.024 219.119 376.53 219.472C377.041 219.824 377.709 220 378.533 220C379.47 220 380.214 219.801 380.766 219.403C381.322 219 381.601 218.517 381.601 217.955C381.601 217.5 381.442 217.119 381.124 216.812C380.805 216.5 380.317 216.267 379.658 216.114L377.476 215.602C376.277 215.318 375.396 214.878 374.834 214.281C374.277 213.679 373.999 212.926 373.999 212.023C373.999 211.284 374.206 210.631 374.621 210.062C375.041 209.494 375.612 209.048 376.334 208.724C377.061 208.401 377.885 208.239 378.805 208.239C380.101 208.239 381.118 208.523 381.857 209.091C382.601 209.659 383.129 210.409 383.442 211.341Z" fill="#F2F0EA"/>
<rect y="90" width="402" height="66" rx="33" fill="#F25700"/>
<path d="M54.5 115.333C54.5 112.284 53.2884 109.358 51.1317 107.202C48.9751 105.045 46.05 103.833 43 103.833C39.95 103.833 37.0249 105.045 34.8683 107.202C32.7116 109.358 31.5 112.284 31.5 115.333C31.5 128.75 25.75 132.583 25.75 132.583H60.25C60.25 132.583 54.5 128.75 54.5 115.333Z" stroke="#F2F0EA" stroke-width="3" stroke-linecap="round" stroke-linejoin="round"/>
<path d="M46.3157 140.25C45.9788 140.831 45.4951 141.313 44.9132 141.648C44.3313 141.983 43.6715 142.16 42.9999 142.16C42.3284 142.16 41.6686 141.983 41.0866 141.648C40.5047 141.313 40.0211 140.831 39.6841 140.25" stroke="#F2F0EA" stroke-width="3" stroke-linecap="round" stroke-linejoin="round"/>
<path d="M93.9545 114.045V131.5H91.9091L82.3977 117.795H82.2273V131.5H80.1136V114.045H82.1591L91.7045 127.784H91.875V114.045H93.9545ZM103.229 131.773C102.048 131.773 101.011 131.491 100.119 130.929C99.2322 130.366 98.5391 129.58 98.0391 128.568C97.5447 127.557 97.2976 126.375 97.2976 125.023C97.2976 123.659 97.5447 122.469 98.0391 121.452C98.5391 120.435 99.2322 119.645 100.119 119.082C101.011 118.52 102.048 118.239 103.229 118.239C104.411 118.239 105.445 118.52 106.332 119.082C107.224 119.645 107.917 120.435 108.411 121.452C108.911 122.469 109.161 123.659 109.161 125.023C109.161 126.375 108.911 127.557 108.411 128.568C107.917 129.58 107.224 130.366 106.332 130.929C105.445 131.491 104.411 131.773 103.229 131.773ZM103.229 129.966C104.127 129.966 104.866 129.736 105.445 129.276C106.025 128.815 106.454 128.21 106.732 127.46C107.011 126.71 107.15 125.898 107.15 125.023C107.15 124.148 107.011 123.332 106.732 122.577C106.454 121.821 106.025 121.21 105.445 120.744C104.866 120.278 104.127 120.045 103.229 120.045C102.332 120.045 101.593 120.278 101.013 120.744C100.434 121.21 100.005 121.821 99.7266 122.577C99.4482 123.332 99.3089 124.148 99.3089 125.023C99.3089 125.898 99.4482 126.71 99.7266 127.46C100.005 128.21 100.434 128.815 101.013 129.276C101.593 129.736 102.332 129.966 103.229 129.966ZM117.925 118.409V120.114H111.141V118.409H117.925ZM113.118 115.273H115.129V127.75C115.129 128.318 115.212 128.744 115.376 129.028C115.547 129.307 115.763 129.494 116.024 129.591C116.291 129.682 116.572 129.727 116.868 129.727C117.089 129.727 117.271 129.716 117.413 129.693C117.555 129.665 117.669 129.642 117.754 129.625L118.163 131.432C118.027 131.483 117.837 131.534 117.592 131.585C117.348 131.642 117.038 131.67 116.663 131.67C116.095 131.67 115.538 131.548 114.993 131.304C114.453 131.06 114.004 130.688 113.646 130.188C113.294 129.688 113.118 129.057 113.118 128.295V115.273ZM120.95 131.5V118.409H122.962V131.5H120.95ZM121.973 116.227C121.581 116.227 121.243 116.094 120.959 115.827C120.68 115.56 120.541 115.239 120.541 114.864C120.541 114.489 120.68 114.168 120.959 113.901C121.243 113.634 121.581 113.5 121.973 113.5C122.365 113.5 122.7 113.634 122.979 113.901C123.263 114.168 123.405 114.489 123.405 114.864C123.405 115.239 123.263 115.56 122.979 115.827C122.7 116.094 122.365 116.227 121.973 116.227ZM132.475 118.409V120.114H125.418V118.409H132.475ZM127.532 131.5V116.602C127.532 115.852 127.708 115.227 128.06 114.727C128.413 114.227 128.87 113.852 129.433 113.602C129.995 113.352 130.589 113.227 131.214 113.227C131.708 113.227 132.112 113.267 132.424 113.347C132.737 113.426 132.969 113.5 133.123 113.568L132.543 115.307C132.441 115.273 132.299 115.23 132.117 115.179C131.941 115.128 131.708 115.102 131.418 115.102C130.754 115.102 130.273 115.27 129.978 115.605C129.688 115.94 129.543 116.432 129.543 117.08V131.5H127.532ZM140.073 131.773C138.846 131.773 137.789 131.483 136.903 130.903C136.016 130.324 135.335 129.526 134.857 128.509C134.38 127.491 134.141 126.33 134.141 125.023C134.141 123.693 134.386 122.52 134.874 121.503C135.369 120.48 136.056 119.682 136.937 119.108C137.823 118.528 138.857 118.239 140.039 118.239C140.96 118.239 141.789 118.409 142.528 118.75C143.266 119.091 143.871 119.568 144.343 120.182C144.815 120.795 145.107 121.511 145.221 122.33H143.21C143.056 121.733 142.715 121.205 142.187 120.744C141.664 120.278 140.96 120.045 140.073 120.045C139.289 120.045 138.602 120.25 138.011 120.659C137.425 121.062 136.968 121.634 136.638 122.372C136.315 123.105 136.153 123.966 136.153 124.955C136.153 125.966 136.312 126.847 136.63 127.597C136.954 128.347 137.408 128.929 137.994 129.344C138.585 129.759 139.278 129.966 140.073 129.966C140.596 129.966 141.07 129.875 141.496 129.693C141.923 129.511 142.283 129.25 142.579 128.909C142.874 128.568 143.085 128.159 143.21 127.682H145.221C145.107 128.455 144.826 129.151 144.377 129.77C143.934 130.384 143.346 130.872 142.613 131.236C141.886 131.594 141.039 131.773 140.073 131.773ZM152.013 131.807C151.184 131.807 150.431 131.651 149.755 131.338C149.079 131.02 148.542 130.562 148.144 129.966C147.746 129.364 147.548 128.636 147.548 127.784C147.548 127.034 147.695 126.426 147.991 125.96C148.286 125.489 148.681 125.119 149.175 124.852C149.67 124.585 150.215 124.386 150.812 124.256C151.414 124.119 152.019 124.011 152.627 123.932C153.423 123.83 154.067 123.753 154.562 123.702C155.062 123.645 155.425 123.551 155.653 123.42C155.886 123.29 156.002 123.062 156.002 122.739V122.67C156.002 121.83 155.772 121.176 155.312 120.71C154.857 120.244 154.167 120.011 153.241 120.011C152.281 120.011 151.528 120.222 150.982 120.642C150.437 121.062 150.053 121.511 149.832 121.989L147.923 121.307C148.263 120.511 148.718 119.892 149.286 119.449C149.86 119 150.485 118.687 151.161 118.511C151.843 118.33 152.513 118.239 153.173 118.239C153.593 118.239 154.076 118.29 154.621 118.392C155.173 118.489 155.704 118.69 156.215 118.997C156.732 119.304 157.161 119.767 157.502 120.386C157.843 121.006 158.013 121.835 158.013 122.875V131.5H156.002V129.727H155.9C155.763 130.011 155.536 130.315 155.218 130.639C154.9 130.963 154.477 131.239 153.948 131.466C153.42 131.693 152.775 131.807 152.013 131.807ZM152.32 130C153.116 130 153.786 129.844 154.332 129.531C154.883 129.219 155.298 128.815 155.576 128.321C155.86 127.827 156.002 127.307 156.002 126.761V124.92C155.917 125.023 155.729 125.116 155.44 125.202C155.156 125.281 154.826 125.352 154.451 125.415C154.082 125.472 153.721 125.523 153.369 125.568C153.022 125.608 152.741 125.642 152.525 125.67C152.002 125.739 151.513 125.849 151.059 126.003C150.61 126.151 150.246 126.375 149.968 126.676C149.695 126.972 149.559 127.375 149.559 127.886C149.559 128.585 149.817 129.114 150.335 129.472C150.857 129.824 151.519 130 152.32 130ZM167.378 118.409V120.114H160.594V118.409H167.378ZM162.571 115.273H164.582V127.75C164.582 128.318 164.665 128.744 164.83 129.028C165 129.307 165.216 129.494 165.477 129.591C165.744 129.682 166.026 129.727 166.321 129.727C166.543 129.727 166.724 129.716 166.866 129.693C167.009 129.665 167.122 129.642 167.207 129.625L167.616 131.432C167.48 131.483 167.29 131.534 167.045 131.585C166.801 131.642 166.491 131.67 166.116 131.67C165.548 131.67 164.991 131.548 164.446 131.304C163.906 131.06 163.457 130.688 163.099 130.188C162.747 129.688 162.571 129.057 162.571 128.295V115.273ZM170.403 131.5V118.409H172.415V131.5H170.403ZM171.426 116.227C171.034 116.227 170.696 116.094 170.412 115.827C170.134 115.56 169.994 115.239 169.994 114.864C169.994 114.489 170.134 114.168 170.412 113.901C170.696 113.634 171.034 113.5 171.426 113.5C171.818 113.5 172.153 113.634 172.432 113.901C172.716 114.168 172.858 114.489 172.858 114.864C172.858 115.239 172.716 115.56 172.432 115.827C172.153 116.094 171.818 116.227 171.426 116.227ZM181.417 131.773C180.235 131.773 179.198 131.491 178.306 130.929C177.42 130.366 176.727 129.58 176.227 128.568C175.732 127.557 175.485 126.375 175.485 125.023C175.485 123.659 175.732 122.469 176.227 121.452C176.727 120.435 177.42 119.645 178.306 119.082C179.198 118.52 180.235 118.239 181.417 118.239C182.599 118.239 183.633 118.52 184.519 119.082C185.411 119.645 186.104 120.435 186.599 121.452C187.099 122.469 187.349 123.659 187.349 125.023C187.349 126.375 187.099 127.557 186.599 128.568C186.104 129.58 185.411 130.366 184.519 130.929C183.633 131.491 182.599 131.773 181.417 131.773ZM181.417 129.966C182.315 129.966 183.053 129.736 183.633 129.276C184.212 128.815 184.641 128.21 184.92 127.46C185.198 126.71 185.337 125.898 185.337 125.023C185.337 124.148 185.198 123.332 184.92 122.577C184.641 121.821 184.212 121.21 183.633 120.744C183.053 120.278 182.315 120.045 181.417 120.045C180.519 120.045 179.781 120.278 179.201 120.744C178.621 121.21 178.192 121.821 177.914 122.577C177.636 123.332 177.496 124.148 177.496 125.023C177.496 125.898 177.636 126.71 177.914 127.46C178.192 128.21 178.621 128.815 179.201 129.276C179.781 129.736 180.519 129.966 181.417 129.966ZM192.43 123.625V131.5H190.419V118.409H192.362V120.455H192.533C192.839 119.79 193.305 119.256 193.93 118.852C194.555 118.443 195.362 118.239 196.351 118.239C197.237 118.239 198.013 118.42 198.678 118.784C199.342 119.142 199.859 119.688 200.229 120.42C200.598 121.148 200.783 122.068 200.783 123.182V131.5H198.771V123.318C198.771 122.29 198.504 121.489 197.97 120.915C197.436 120.335 196.703 120.045 195.771 120.045C195.129 120.045 194.555 120.185 194.05 120.463C193.55 120.741 193.155 121.148 192.865 121.682C192.575 122.216 192.43 122.864 192.43 123.625ZM213.731 121.341L211.924 121.852C211.81 121.551 211.643 121.259 211.421 120.974C211.205 120.685 210.91 120.446 210.535 120.259C210.16 120.071 209.68 119.977 209.094 119.977C208.293 119.977 207.626 120.162 207.092 120.531C206.563 120.895 206.299 121.358 206.299 121.92C206.299 122.42 206.481 122.815 206.844 123.105C207.208 123.395 207.776 123.636 208.549 123.83L210.492 124.307C211.663 124.591 212.535 125.026 213.109 125.611C213.683 126.19 213.969 126.937 213.969 127.852C213.969 128.602 213.754 129.273 213.322 129.864C212.896 130.455 212.299 130.92 211.532 131.261C210.765 131.602 209.873 131.773 208.856 131.773C207.521 131.773 206.415 131.483 205.54 130.903C204.665 130.324 204.112 129.477 203.879 128.364L205.788 127.886C205.969 128.591 206.313 129.119 206.819 129.472C207.33 129.824 207.998 130 208.822 130C209.759 130 210.504 129.801 211.055 129.403C211.612 129 211.89 128.517 211.89 127.955C211.89 127.5 211.731 127.119 211.413 126.812C211.094 126.5 210.606 126.267 209.947 126.114L207.765 125.602C206.566 125.318 205.685 124.878 205.123 124.281C204.566 123.679 204.288 122.926 204.288 122.023C204.288 121.284 204.495 120.631 204.91 120.062C205.33 119.494 205.901 119.048 206.623 118.724C207.35 118.401 208.174 118.239 209.094 118.239C210.39 118.239 211.407 118.523 212.146 119.091C212.89 119.659 213.418 120.409 213.731 121.341ZM229.577 118.409V120.114H222.52V118.409H229.577ZM224.634 131.5V116.602C224.634 115.852 224.81 115.227 225.162 114.727C225.514 114.227 225.972 113.852 226.534 113.602C227.097 113.352 227.69 113.227 228.315 113.227C228.81 113.227 229.213 113.267 229.526 113.347C229.838 113.426 230.071 113.5 230.224 113.568L229.645 115.307C229.543 115.273 229.401 115.23 229.219 115.179C229.043 115.128 228.81 115.102 228.52 115.102C227.855 115.102 227.375 115.27 227.08 115.605C226.79 115.94 226.645 116.432 226.645 117.08V131.5H224.634ZM237.175 131.773C235.993 131.773 234.956 131.491 234.064 130.929C233.178 130.366 232.484 129.58 231.984 128.568C231.49 127.557 231.243 126.375 231.243 125.023C231.243 123.659 231.49 122.469 231.984 121.452C232.484 120.435 233.178 119.645 234.064 119.082C234.956 118.52 235.993 118.239 237.175 118.239C238.357 118.239 239.391 118.52 240.277 119.082C241.169 119.645 241.862 120.435 242.357 121.452C242.857 122.469 243.107 123.659 243.107 125.023C243.107 126.375 242.857 127.557 242.357 128.568C241.862 129.58 241.169 130.366 240.277 130.929C239.391 131.491 238.357 131.773 237.175 131.773ZM237.175 129.966C238.072 129.966 238.811 129.736 239.391 129.276C239.97 128.815 240.399 128.21 240.678 127.46C240.956 126.71 241.095 125.898 241.095 125.023C241.095 124.148 240.956 123.332 240.678 122.577C240.399 121.821 239.97 121.21 239.391 120.744C238.811 120.278 238.072 120.045 237.175 120.045C236.277 120.045 235.538 120.278 234.959 120.744C234.379 121.21 233.95 121.821 233.672 122.577C233.393 123.332 233.254 124.148 233.254 125.023C233.254 125.898 233.393 126.71 233.672 127.46C233.95 128.21 234.379 128.815 234.959 129.276C235.538 129.736 236.277 129.966 237.175 129.966ZM246.177 131.5V118.409H248.12V120.386H248.256C248.495 119.739 248.927 119.213 249.552 118.81C250.177 118.406 250.881 118.205 251.665 118.205C251.813 118.205 251.998 118.207 252.219 118.213C252.441 118.219 252.609 118.227 252.722 118.239V120.284C252.654 120.267 252.498 120.241 252.254 120.207C252.015 120.168 251.762 120.148 251.495 120.148C250.859 120.148 250.29 120.281 249.79 120.548C249.296 120.81 248.904 121.173 248.614 121.639C248.33 122.099 248.188 122.625 248.188 123.216V131.5H246.177ZM261.857 131.5V118.409H263.868V131.5H261.857ZM262.879 116.227C262.487 116.227 262.149 116.094 261.865 115.827C261.587 115.56 261.447 115.239 261.447 114.864C261.447 114.489 261.587 114.168 261.865 113.901C262.149 113.634 262.487 113.5 262.879 113.5C263.271 113.5 263.607 113.634 263.885 113.901C264.169 114.168 264.311 114.489 264.311 114.864C264.311 115.239 264.169 115.56 263.885 115.827C263.607 116.094 263.271 116.227 262.879 116.227ZM269.563 123.625V131.5H267.552V118.409H269.495V120.455H269.665C269.972 119.79 270.438 119.256 271.063 118.852C271.688 118.443 272.495 118.239 273.484 118.239C274.37 118.239 275.146 118.42 275.81 118.784C276.475 119.142 276.992 119.688 277.362 120.42C277.731 121.148 277.915 122.068 277.915 123.182V131.5H275.904V123.318C275.904 122.29 275.637 121.489 275.103 120.915C274.569 120.335 273.836 120.045 272.904 120.045C272.262 120.045 271.688 120.185 271.183 120.463C270.683 120.741 270.288 121.148 269.998 121.682C269.708 122.216 269.563 122.864 269.563 123.625ZM290.864 121.341L289.057 121.852C288.943 121.551 288.776 121.259 288.554 120.974C288.338 120.685 288.043 120.446 287.668 120.259C287.293 120.071 286.812 119.977 286.227 119.977C285.426 119.977 284.759 120.162 284.224 120.531C283.696 120.895 283.432 121.358 283.432 121.92C283.432 122.42 283.614 122.815 283.977 123.105C284.341 123.395 284.909 123.636 285.682 123.83L287.625 124.307C288.795 124.591 289.668 125.026 290.241 125.611C290.815 126.19 291.102 126.937 291.102 127.852C291.102 128.602 290.886 129.273 290.455 129.864C290.028 130.455 289.432 130.92 288.665 131.261C287.898 131.602 287.006 131.773 285.989 131.773C284.653 131.773 283.548 131.483 282.673 130.903C281.798 130.324 281.244 129.477 281.011 128.364L282.92 127.886C283.102 128.591 283.446 129.119 283.952 129.472C284.463 129.824 285.131 130 285.955 130C286.892 130 287.636 129.801 288.188 129.403C288.744 129 289.023 128.517 289.023 127.955C289.023 127.5 288.864 127.119 288.545 126.812C288.227 126.5 287.739 126.267 287.08 126.114L284.898 125.602C283.699 125.318 282.818 124.878 282.256 124.281C281.699 123.679 281.42 122.926 281.42 122.023C281.42 121.284 281.628 120.631 282.043 120.062C282.463 119.494 283.034 119.048 283.756 118.724C284.483 118.401 285.307 118.239 286.227 118.239C287.523 118.239 288.54 118.523 289.278 119.091C290.023 119.659 290.551 120.409 290.864 121.341ZM299.823 118.409V120.114H293.039V118.409H299.823ZM295.016 115.273H297.028V127.75C297.028 128.318 297.11 128.744 297.275 129.028C297.445 129.307 297.661 129.494 297.923 129.591C298.19 129.682 298.471 129.727 298.766 129.727C298.988 129.727 299.17 129.716 299.312 129.693C299.454 129.665 299.567 129.642 299.653 129.625L300.062 131.432C299.925 131.483 299.735 131.534 299.491 131.585C299.246 131.642 298.937 131.67 298.562 131.67C297.994 131.67 297.437 131.548 296.891 131.304C296.352 131.06 295.903 130.688 295.545 130.188C295.192 129.688 295.016 129.057 295.016 128.295V115.273ZM302.849 131.5V118.409H304.792V120.386H304.928C305.167 119.739 305.599 119.213 306.224 118.81C306.849 118.406 307.553 118.205 308.337 118.205C308.485 118.205 308.67 118.207 308.891 118.213C309.113 118.219 309.281 118.227 309.394 118.239V120.284C309.326 120.267 309.17 120.241 308.925 120.207C308.687 120.168 308.434 120.148 308.167 120.148C307.531 120.148 306.962 120.281 306.462 120.548C305.968 120.81 305.576 121.173 305.286 121.639C305.002 122.099 304.86 122.625 304.86 123.216V131.5H302.849ZM320.028 126.148V118.409H322.04V131.5H320.028V129.284H319.892C319.585 129.949 319.108 130.514 318.46 130.98C317.813 131.44 316.994 131.67 316.006 131.67C315.188 131.67 314.46 131.491 313.824 131.134C313.188 130.77 312.688 130.224 312.324 129.497C311.96 128.764 311.778 127.841 311.778 126.727V118.409H313.79V126.591C313.79 127.545 314.057 128.307 314.591 128.875C315.131 129.443 315.818 129.727 316.653 129.727C317.153 129.727 317.662 129.599 318.179 129.344C318.702 129.088 319.139 128.696 319.491 128.168C319.849 127.639 320.028 126.966 320.028 126.148ZM331.042 131.773C329.815 131.773 328.758 131.483 327.871 130.903C326.985 130.324 326.303 129.526 325.826 128.509C325.349 127.491 325.11 126.33 325.11 125.023C325.11 123.693 325.354 122.52 325.843 121.503C326.337 120.48 327.025 119.682 327.906 119.108C328.792 118.528 329.826 118.239 331.008 118.239C331.928 118.239 332.758 118.409 333.496 118.75C334.235 119.091 334.84 119.568 335.312 120.182C335.783 120.795 336.076 121.511 336.19 122.33H334.178C334.025 121.733 333.684 121.205 333.156 120.744C332.633 120.278 331.928 120.045 331.042 120.045C330.258 120.045 329.57 120.25 328.979 120.659C328.394 121.062 327.937 121.634 327.607 122.372C327.283 123.105 327.121 123.966 327.121 124.955C327.121 125.966 327.281 126.847 327.599 127.597C327.923 128.347 328.377 128.929 328.962 129.344C329.553 129.759 330.246 129.966 331.042 129.966C331.565 129.966 332.039 129.875 332.465 129.693C332.891 129.511 333.252 129.25 333.548 128.909C333.843 128.568 334.053 128.159 334.178 127.682H336.19C336.076 128.455 335.795 129.151 335.346 129.77C334.903 130.384 334.315 130.872 333.582 131.236C332.854 131.594 332.008 131.773 331.042 131.773ZM344.823 118.409V120.114H338.039V118.409H344.823ZM340.016 115.273H342.028V127.75C342.028 128.318 342.11 128.744 342.275 129.028C342.445 129.307 342.661 129.494 342.923 129.591C343.19 129.682 343.471 129.727 343.766 129.727C343.988 129.727 344.17 129.716 344.312 129.693C344.454 129.665 344.567 129.642 344.653 129.625L345.062 131.432C344.925 131.483 344.735 131.534 344.491 131.585C344.246 131.642 343.937 131.67 343.562 131.67C342.994 131.67 342.437 131.548 341.891 131.304C341.352 131.06 340.903 130.688 340.545 130.188C340.192 129.688 340.016 129.057 340.016 128.295V115.273ZM353.026 131.773C351.844 131.773 350.808 131.491 349.915 130.929C349.029 130.366 348.336 129.58 347.836 128.568C347.342 127.557 347.094 126.375 347.094 125.023C347.094 123.659 347.342 122.469 347.836 121.452C348.336 120.435 349.029 119.645 349.915 119.082C350.808 118.52 351.844 118.239 353.026 118.239C354.208 118.239 355.242 118.52 356.129 119.082C357.021 119.645 357.714 120.435 358.208 121.452C358.708 122.469 358.958 123.659 358.958 125.023C358.958 126.375 358.708 127.557 358.208 128.568C357.714 129.58 357.021 130.366 356.129 130.929C355.242 131.491 354.208 131.773 353.026 131.773ZM353.026 129.966C353.924 129.966 354.663 129.736 355.242 129.276C355.822 128.815 356.251 128.21 356.529 127.46C356.808 126.71 356.947 125.898 356.947 125.023C356.947 124.148 356.808 123.332 356.529 122.577C356.251 121.821 355.822 121.21 355.242 120.744C354.663 120.278 353.924 120.045 353.026 120.045C352.129 120.045 351.39 120.278 350.81 120.744C350.231 121.21 349.802 121.821 349.523 122.577C349.245 123.332 349.106 124.148 349.106 125.023C349.106 125.898 349.245 126.71 349.523 127.46C349.802 128.21 350.231 128.815 350.81 129.276C351.39 129.736 352.129 129.966 353.026 129.966ZM362.028 131.5V118.409H363.972V120.386H364.108C364.347 119.739 364.778 119.213 365.403 118.81C366.028 118.406 366.733 118.205 367.517 118.205C367.665 118.205 367.849 118.207 368.071 118.213C368.293 118.219 368.46 118.227 368.574 118.239V120.284C368.506 120.267 368.349 120.241 368.105 120.207C367.866 120.168 367.614 120.148 367.347 120.148C366.71 120.148 366.142 120.281 365.642 120.548C365.148 120.81 364.756 121.173 364.466 121.639C364.182 122.099 364.04 122.625 364.04 123.216V131.5H362.028ZM380.231 121.341L378.424 121.852C378.31 121.551 378.143 121.259 377.921 120.974C377.705 120.685 377.41 120.446 377.035 120.259C376.66 120.071 376.18 119.977 375.594 119.977C374.793 119.977 374.126 120.162 373.592 120.531C373.063 120.895 372.799 121.358 372.799 121.92C372.799 122.42 372.981 122.815 373.344 123.105C373.708 123.395 374.276 123.636 375.049 123.83L376.992 124.307C378.163 124.591 379.035 125.026 379.609 125.611C380.183 126.19 380.469 126.937 380.469 127.852C380.469 128.602 380.254 129.273 379.822 129.864C379.396 130.455 378.799 130.92 378.032 131.261C377.265 131.602 376.373 131.773 375.356 131.773C374.021 131.773 372.915 131.483 372.04 130.903C371.165 130.324 370.612 129.477 370.379 128.364L372.288 127.886C372.469 128.591 372.813 129.119 373.319 129.472C373.83 129.824 374.498 130 375.322 130C376.259 130 377.004 129.801 377.555 129.403C378.112 129 378.39 128.517 378.39 127.955C378.39 127.5 378.231 127.119 377.913 126.812C377.594 126.5 377.106 126.267 376.447 126.114L374.265 125.602C373.066 125.318 372.185 124.878 371.623 124.281C371.066 123.679 370.788 122.926 370.788 122.023C370.788 121.284 370.995 120.631 371.41 120.062C371.83 119.494 372.401 119.048 373.123 118.724C373.85 118.401 374.674 118.239 375.594 118.239C376.89 118.239 377.907 118.523 378.646 119.091C379.39 119.659 379.918 120.409 380.231 121.341Z" fill="#F2F0EA"/>
<rect y="270" width="350" height="66" rx="33" fill="#F25700"/>
<path d="M27.6665 297.25H58.3332" stroke="#F2F0EA" stroke-width="3" stroke-linecap="round" stroke-linejoin="round"/>
<path d="M27.6665 308.75H58.3332" stroke="#F2F0EA" stroke-width="3" stroke-linecap="round" stroke-linejoin="round"/>
<path d="M39.1666 285.75L35.3333 320.25" stroke="#F2F0EA" stroke-width="3" stroke-linecap="round" stroke-linejoin="round"/>
<path d="M50.6668 285.75L46.8335 320.25" stroke="#F2F0EA" stroke-width="3" stroke-linecap="round" stroke-linejoin="round"/>
<path d="M85.5 311.5H80.1136V294.045H85.7386C87.4318 294.045 88.8807 294.395 90.0852 295.094C91.2898 295.787 92.2131 296.784 92.8551 298.085C93.4972 299.381 93.8182 300.932 93.8182 302.739C93.8182 304.557 93.4943 306.122 92.8466 307.435C92.1989 308.741 91.2557 309.747 90.017 310.452C88.7784 311.151 87.2727 311.5 85.5 311.5ZM82.2273 309.625H85.3636C86.8068 309.625 88.0028 309.347 88.9517 308.79C89.9006 308.233 90.608 307.44 91.0739 306.412C91.5398 305.384 91.7727 304.159 91.7727 302.739C91.7727 301.33 91.5426 300.116 91.0824 299.099C90.6222 298.077 89.9347 297.293 89.0199 296.747C88.1051 296.196 86.9659 295.92 85.6023 295.92H82.2273V309.625ZM97.0909 311.5V298.409H99.0341V300.386H99.1705C99.4091 299.739 99.8409 299.213 100.466 298.81C101.091 298.406 101.795 298.205 102.58 298.205C102.727 298.205 102.912 298.207 103.134 298.213C103.355 298.219 103.523 298.227 103.636 298.239V300.284C103.568 300.267 103.412 300.241 103.168 300.207C102.929 300.168 102.676 300.148 102.409 300.148C101.773 300.148 101.205 300.281 100.705 300.548C100.21 300.81 99.8182 301.173 99.5284 301.639C99.2443 302.099 99.1023 302.625 99.1023 303.216V311.5H97.0909ZM106.021 311.5V298.409H108.032V311.5H106.021ZM107.043 296.227C106.651 296.227 106.313 296.094 106.029 295.827C105.751 295.56 105.612 295.239 105.612 294.864C105.612 294.489 105.751 294.168 106.029 293.901C106.313 293.634 106.651 293.5 107.043 293.5C107.435 293.5 107.771 293.634 108.049 293.901C108.333 294.168 108.475 294.489 108.475 294.864C108.475 295.239 108.333 295.56 108.049 295.827C107.771 296.094 107.435 296.227 107.043 296.227ZM113.727 294.045V311.5H111.716V294.045H113.727ZM119.423 294.045V311.5H117.411V294.045H119.423ZM130.129 311.5V294.045H136.027C137.396 294.045 138.516 294.293 139.385 294.787C140.26 295.276 140.908 295.938 141.328 296.773C141.749 297.608 141.959 298.54 141.959 299.568C141.959 300.597 141.749 301.531 141.328 302.372C140.913 303.213 140.271 303.884 139.402 304.384C138.533 304.878 137.419 305.125 136.061 305.125H131.834V303.25H135.993C136.93 303.25 137.683 303.088 138.251 302.764C138.82 302.44 139.232 302.003 139.487 301.452C139.749 300.895 139.879 300.267 139.879 299.568C139.879 298.869 139.749 298.244 139.487 297.693C139.232 297.142 138.817 296.71 138.243 296.398C137.669 296.08 136.908 295.92 135.959 295.92H132.243V311.5H130.129ZM145.091 311.5V298.409H147.034V300.386H147.17C147.409 299.739 147.841 299.213 148.466 298.81C149.091 298.406 149.795 298.205 150.58 298.205C150.727 298.205 150.912 298.207 151.134 298.213C151.355 298.219 151.523 298.227 151.636 298.239V300.284C151.568 300.267 151.412 300.241 151.168 300.207C150.929 300.168 150.676 300.148 150.409 300.148C149.773 300.148 149.205 300.281 148.705 300.548C148.21 300.81 147.818 301.173 147.528 301.639C147.244 302.099 147.102 302.625 147.102 303.216V311.5H145.091ZM157.873 311.807C157.043 311.807 156.29 311.651 155.614 311.338C154.938 311.02 154.401 310.562 154.004 309.966C153.606 309.364 153.407 308.636 153.407 307.784C153.407 307.034 153.555 306.426 153.85 305.96C154.146 305.489 154.54 305.119 155.035 304.852C155.529 304.585 156.075 304.386 156.671 304.256C157.273 304.119 157.879 304.011 158.487 303.932C159.282 303.83 159.927 303.753 160.421 303.702C160.921 303.645 161.285 303.551 161.512 303.42C161.745 303.29 161.862 303.062 161.862 302.739V302.67C161.862 301.83 161.631 301.176 161.171 300.71C160.717 300.244 160.026 300.011 159.1 300.011C158.14 300.011 157.387 300.222 156.842 300.642C156.296 301.062 155.913 301.511 155.691 301.989L153.782 301.307C154.123 300.511 154.577 299.892 155.146 299.449C155.719 299 156.344 298.687 157.021 298.511C157.702 298.33 158.373 298.239 159.032 298.239C159.452 298.239 159.935 298.29 160.481 298.392C161.032 298.489 161.563 298.69 162.075 298.997C162.592 299.304 163.021 299.767 163.362 300.386C163.702 301.006 163.873 301.835 163.873 302.875V311.5H161.862V309.727H161.759C161.623 310.011 161.396 310.315 161.077 310.639C160.759 310.963 160.336 311.239 159.808 311.466C159.279 311.693 158.634 311.807 157.873 311.807ZM158.18 310C158.975 310 159.646 309.844 160.191 309.531C160.742 309.219 161.157 308.815 161.435 308.321C161.719 307.827 161.862 307.307 161.862 306.761V304.92C161.776 305.023 161.589 305.116 161.299 305.202C161.015 305.281 160.685 305.352 160.31 305.415C159.941 305.472 159.58 305.523 159.228 305.568C158.881 305.608 158.6 305.642 158.384 305.67C157.862 305.739 157.373 305.849 156.918 306.003C156.469 306.151 156.106 306.375 155.827 306.676C155.555 306.972 155.418 307.375 155.418 307.886C155.418 308.585 155.677 309.114 156.194 309.472C156.717 309.824 157.379 310 158.18 310ZM172.862 311.773C171.635 311.773 170.578 311.483 169.692 310.903C168.805 310.324 168.124 309.526 167.646 308.509C167.169 307.491 166.93 306.33 166.93 305.023C166.93 303.693 167.175 302.52 167.663 301.503C168.158 300.48 168.845 299.682 169.726 299.108C170.612 298.528 171.646 298.239 172.828 298.239C173.749 298.239 174.578 298.409 175.317 298.75C176.055 299.091 176.661 299.568 177.132 300.182C177.604 300.795 177.896 301.511 178.01 302.33H175.999C175.845 301.733 175.504 301.205 174.976 300.744C174.453 300.278 173.749 300.045 172.862 300.045C172.078 300.045 171.391 300.25 170.8 300.659C170.214 301.062 169.757 301.634 169.428 302.372C169.104 303.105 168.942 303.966 168.942 304.955C168.942 305.966 169.101 306.847 169.419 307.597C169.743 308.347 170.197 308.929 170.783 309.344C171.374 309.759 172.067 309.966 172.862 309.966C173.385 309.966 173.859 309.875 174.286 309.693C174.712 309.511 175.072 309.25 175.368 308.909C175.663 308.568 175.874 308.159 175.999 307.682H178.01C177.896 308.455 177.615 309.151 177.166 309.77C176.723 310.384 176.135 310.872 175.402 311.236C174.675 311.594 173.828 311.773 172.862 311.773ZM186.643 298.409V300.114H179.859V298.409H186.643ZM181.837 295.273H183.848V307.75C183.848 308.318 183.93 308.744 184.095 309.028C184.266 309.307 184.482 309.494 184.743 309.591C185.01 309.682 185.291 309.727 185.587 309.727C185.808 309.727 185.99 309.716 186.132 309.693C186.274 309.665 186.388 309.642 186.473 309.625L186.882 311.432C186.746 311.483 186.555 311.534 186.311 311.585C186.067 311.642 185.757 311.67 185.382 311.67C184.814 311.67 184.257 311.548 183.712 311.304C183.172 311.06 182.723 310.688 182.365 310.188C182.013 309.688 181.837 309.057 181.837 308.295V295.273ZM189.669 311.5V298.409H191.68V311.5H189.669ZM190.692 296.227C190.3 296.227 189.962 296.094 189.678 295.827C189.399 295.56 189.26 295.239 189.26 294.864C189.26 294.489 189.399 294.168 189.678 293.901C189.962 293.634 190.3 293.5 190.692 293.5C191.084 293.5 191.419 293.634 191.697 293.901C191.982 294.168 192.124 294.489 192.124 294.864C192.124 295.239 191.982 295.56 191.697 295.827C191.419 296.094 191.084 296.227 190.692 296.227ZM200.683 311.773C199.455 311.773 198.398 311.483 197.512 310.903C196.626 310.324 195.944 309.526 195.467 308.509C194.989 307.491 194.751 306.33 194.751 305.023C194.751 303.693 194.995 302.52 195.484 301.503C195.978 300.48 196.665 299.682 197.546 299.108C198.433 298.528 199.467 298.239 200.648 298.239C201.569 298.239 202.398 298.409 203.137 298.75C203.876 299.091 204.481 299.568 204.952 300.182C205.424 300.795 205.717 301.511 205.83 302.33H203.819C203.665 301.733 203.325 301.205 202.796 300.744C202.273 300.278 201.569 300.045 200.683 300.045C199.898 300.045 199.211 300.25 198.62 300.659C198.035 301.062 197.577 301.634 197.248 302.372C196.924 303.105 196.762 303.966 196.762 304.955C196.762 305.966 196.921 306.847 197.239 307.597C197.563 308.347 198.018 308.929 198.603 309.344C199.194 309.759 199.887 309.966 200.683 309.966C201.205 309.966 201.68 309.875 202.106 309.693C202.532 309.511 202.893 309.25 203.188 308.909C203.484 308.568 203.694 308.159 203.819 307.682H205.83C205.717 308.455 205.435 309.151 204.987 309.77C204.543 310.384 203.955 310.872 203.222 311.236C202.495 311.594 201.648 311.773 200.683 311.773ZM214.259 311.773C212.998 311.773 211.91 311.494 210.995 310.938C210.086 310.375 209.384 309.591 208.89 308.585C208.401 307.574 208.157 306.398 208.157 305.057C208.157 303.716 208.401 302.534 208.89 301.511C209.384 300.483 210.072 299.682 210.952 299.108C211.839 298.528 212.873 298.239 214.055 298.239C214.737 298.239 215.41 298.352 216.075 298.58C216.739 298.807 217.344 299.176 217.89 299.688C218.435 300.193 218.87 300.864 219.194 301.699C219.518 302.534 219.68 303.562 219.68 304.784V305.636H209.589V303.898H217.634C217.634 303.159 217.487 302.5 217.191 301.92C216.901 301.341 216.487 300.884 215.947 300.548C215.413 300.213 214.782 300.045 214.055 300.045C213.254 300.045 212.56 300.244 211.975 300.642C211.396 301.034 210.95 301.545 210.637 302.176C210.325 302.807 210.168 303.483 210.168 304.205V305.364C210.168 306.352 210.339 307.19 210.68 307.878C211.026 308.56 211.506 309.08 212.12 309.438C212.734 309.79 213.447 309.966 214.259 309.966C214.788 309.966 215.265 309.892 215.691 309.744C216.123 309.591 216.495 309.364 216.808 309.062C217.12 308.756 217.362 308.375 217.532 307.92L219.475 308.466C219.271 309.125 218.927 309.705 218.444 310.205C217.961 310.699 217.364 311.085 216.654 311.364C215.944 311.636 215.146 311.773 214.259 311.773ZM231.876 294.045V311.5H229.762V294.045H231.876ZM237.852 303.625V311.5H235.841V298.409H237.784V300.455H237.955C238.261 299.79 238.727 299.256 239.352 298.852C239.977 298.443 240.784 298.239 241.773 298.239C242.659 298.239 243.435 298.42 244.099 298.784C244.764 299.142 245.281 299.688 245.651 300.42C246.02 301.148 246.205 302.068 246.205 303.182V311.5H244.193V303.318C244.193 302.29 243.926 301.489 243.392 300.915C242.858 300.335 242.125 300.045 241.193 300.045C240.551 300.045 239.977 300.185 239.472 300.463C238.972 300.741 238.577 301.148 238.287 301.682C237.997 302.216 237.852 302.864 237.852 303.625ZM255.573 298.409V300.114H248.789V298.409H255.573ZM250.766 295.273H252.778V307.75C252.778 308.318 252.86 308.744 253.025 309.028C253.195 309.307 253.411 309.494 253.673 309.591C253.94 309.682 254.221 309.727 254.516 309.727C254.738 309.727 254.92 309.716 255.062 309.693C255.204 309.665 255.317 309.642 255.403 309.625L255.812 311.432C255.675 311.483 255.485 311.534 255.241 311.585C254.996 311.642 254.687 311.67 254.312 311.67C253.744 311.67 253.187 311.548 252.641 311.304C252.102 311.06 251.653 310.688 251.295 310.188C250.942 309.688 250.766 309.057 250.766 308.295V295.273ZM263.947 311.773C262.685 311.773 261.597 311.494 260.683 310.938C259.773 310.375 259.072 309.591 258.577 308.585C258.089 307.574 257.844 306.398 257.844 305.057C257.844 303.716 258.089 302.534 258.577 301.511C259.072 300.483 259.759 299.682 260.64 299.108C261.526 298.528 262.56 298.239 263.742 298.239C264.424 298.239 265.097 298.352 265.762 298.58C266.427 298.807 267.032 299.176 267.577 299.688C268.123 300.193 268.558 300.864 268.881 301.699C269.205 302.534 269.367 303.562 269.367 304.784V305.636H259.276V303.898H267.322C267.322 303.159 267.174 302.5 266.879 301.92C266.589 301.341 266.174 300.884 265.634 300.548C265.1 300.213 264.469 300.045 263.742 300.045C262.941 300.045 262.248 300.244 261.663 300.642C261.083 301.034 260.637 301.545 260.325 302.176C260.012 302.807 259.856 303.483 259.856 304.205V305.364C259.856 306.352 260.026 307.19 260.367 307.878C260.714 308.56 261.194 309.08 261.808 309.438C262.421 309.79 263.134 309.966 263.947 309.966C264.475 309.966 264.952 309.892 265.379 309.744C265.81 309.591 266.183 309.364 266.495 309.062C266.808 308.756 267.049 308.375 267.219 307.92L269.163 308.466C268.958 309.125 268.614 309.705 268.131 310.205C267.648 310.699 267.052 311.085 266.342 311.364C265.631 311.636 264.833 311.773 263.947 311.773ZM272.427 311.5V298.409H274.37V300.386H274.506C274.745 299.739 275.177 299.213 275.802 298.81C276.427 298.406 277.131 298.205 277.915 298.205C278.063 298.205 278.248 298.207 278.469 298.213C278.691 298.219 278.859 298.227 278.972 298.239V300.284C278.904 300.267 278.748 300.241 278.504 300.207C278.265 300.168 278.012 300.148 277.745 300.148C277.109 300.148 276.54 300.281 276.04 300.548C275.546 300.81 275.154 301.173 274.864 301.639C274.58 302.099 274.438 302.625 274.438 303.216V311.5H272.427ZM288.006 298.409V300.114H280.95V298.409H288.006ZM283.063 311.5V296.602C283.063 295.852 283.239 295.227 283.592 294.727C283.944 294.227 284.401 293.852 284.964 293.602C285.526 293.352 286.12 293.227 286.745 293.227C287.239 293.227 287.643 293.267 287.955 293.347C288.268 293.426 288.501 293.5 288.654 293.568L288.075 295.307C287.972 295.273 287.83 295.23 287.648 295.179C287.472 295.128 287.239 295.102 286.95 295.102C286.285 295.102 285.805 295.27 285.509 295.605C285.219 295.94 285.075 296.432 285.075 297.08V311.5H283.063ZM294.303 311.807C293.473 311.807 292.72 311.651 292.044 311.338C291.368 311.02 290.831 310.562 290.433 309.966C290.036 309.364 289.837 308.636 289.837 307.784C289.837 307.034 289.984 306.426 290.28 305.96C290.575 305.489 290.97 305.119 291.464 304.852C291.959 304.585 292.504 304.386 293.101 304.256C293.703 304.119 294.308 304.011 294.916 303.932C295.712 303.83 296.357 303.753 296.851 303.702C297.351 303.645 297.714 303.551 297.942 303.42C298.175 303.29 298.291 303.062 298.291 302.739V302.67C298.291 301.83 298.061 301.176 297.601 300.71C297.146 300.244 296.456 300.011 295.53 300.011C294.57 300.011 293.817 300.222 293.271 300.642C292.726 301.062 292.342 301.511 292.121 301.989L290.212 301.307C290.553 300.511 291.007 299.892 291.575 299.449C292.149 299 292.774 298.687 293.45 298.511C294.132 298.33 294.803 298.239 295.462 298.239C295.882 298.239 296.365 298.29 296.911 298.392C297.462 298.489 297.993 298.69 298.504 298.997C299.021 299.304 299.45 299.767 299.791 300.386C300.132 301.006 300.303 301.835 300.303 302.875V311.5H298.291V309.727H298.189C298.053 310.011 297.825 310.315 297.507 310.639C297.189 310.963 296.766 311.239 296.237 311.466C295.709 311.693 295.064 311.807 294.303 311.807ZM294.609 310C295.405 310 296.075 309.844 296.621 309.531C297.172 309.219 297.587 308.815 297.865 308.321C298.149 307.827 298.291 307.307 298.291 306.761V304.92C298.206 305.023 298.018 305.116 297.729 305.202C297.445 305.281 297.115 305.352 296.74 305.415C296.371 305.472 296.01 305.523 295.658 305.568C295.311 305.608 295.03 305.642 294.814 305.67C294.291 305.739 293.803 305.849 293.348 306.003C292.899 306.151 292.536 306.375 292.257 306.676C291.984 306.972 291.848 307.375 291.848 307.886C291.848 308.585 292.107 309.114 292.624 309.472C293.146 309.824 293.808 310 294.609 310ZM309.292 311.773C308.065 311.773 307.008 311.483 306.121 310.903C305.235 310.324 304.553 309.526 304.076 308.509C303.599 307.491 303.36 306.33 303.36 305.023C303.36 303.693 303.604 302.52 304.093 301.503C304.587 300.48 305.275 299.682 306.156 299.108C307.042 298.528 308.076 298.239 309.258 298.239C310.178 298.239 311.008 298.409 311.746 298.75C312.485 299.091 313.09 299.568 313.562 300.182C314.033 300.795 314.326 301.511 314.44 302.33H312.428C312.275 301.733 311.934 301.205 311.406 300.744C310.883 300.278 310.178 300.045 309.292 300.045C308.508 300.045 307.82 300.25 307.229 300.659C306.644 301.062 306.187 301.634 305.857 302.372C305.533 303.105 305.371 303.966 305.371 304.955C305.371 305.966 305.531 306.847 305.849 307.597C306.173 308.347 306.627 308.929 307.212 309.344C307.803 309.759 308.496 309.966 309.292 309.966C309.815 309.966 310.289 309.875 310.715 309.693C311.141 309.511 311.502 309.25 311.798 308.909C312.093 308.568 312.303 308.159 312.428 307.682H314.44C314.326 308.455 314.045 309.151 313.596 309.77C313.153 310.384 312.565 310.872 311.832 311.236C311.104 311.594 310.258 311.773 309.292 311.773ZM322.869 311.773C321.607 311.773 320.519 311.494 319.604 310.938C318.695 310.375 317.994 309.591 317.499 308.585C317.011 307.574 316.766 306.398 316.766 305.057C316.766 303.716 317.011 302.534 317.499 301.511C317.994 300.483 318.681 299.682 319.562 299.108C320.448 298.528 321.482 298.239 322.664 298.239C323.346 298.239 324.019 298.352 324.684 298.58C325.349 298.807 325.954 299.176 326.499 299.688C327.045 300.193 327.479 300.864 327.803 301.699C328.127 302.534 328.289 303.562 328.289 304.784V305.636H318.198V303.898H326.244C326.244 303.159 326.096 302.5 325.8 301.92C325.511 301.341 325.096 300.884 324.556 300.548C324.022 300.213 323.391 300.045 322.664 300.045C321.863 300.045 321.17 300.244 320.585 300.642C320.005 301.034 319.559 301.545 319.246 302.176C318.934 302.807 318.778 303.483 318.778 304.205V305.364C318.778 306.352 318.948 307.19 319.289 307.878C319.636 308.56 320.116 309.08 320.729 309.438C321.343 309.79 322.056 309.966 322.869 309.966C323.397 309.966 323.874 309.892 324.3 309.744C324.732 309.591 325.104 309.364 325.417 309.062C325.729 308.756 325.971 308.375 326.141 307.92L328.085 308.466C327.88 309.125 327.536 309.705 327.053 310.205C326.57 310.699 325.974 311.085 325.263 311.364C324.553 311.636 323.755 311.773 322.869 311.773Z" fill="#F2F0EA"/>
</svg>
