<svg width="368" height="91" viewBox="0 0 368 91" fill="none" xmlns="http://www.w3.org/2000/svg">
<path d="M222.5 40C222.5 61.8153 204.815 79.5 183 79.5C161.185 79.5 143.5 61.8153 143.5 40C143.5 18.1848 161.185 0.5 183 0.5C204.815 0.5 222.5 18.1848 222.5 40Z" fill="#C4C4C4" stroke="black"/>
<path d="M157 54.5V25C157 24.4477 157.448 24 158 24H196C196.552 24 197 24.4477 197 25V33L206.929 26.0929C207.592 25.6317 208.5 26.1061 208.5 26.9138V51.7206C208.5 52.5008 207.646 52.9804 206.98 52.5748L197 46.5V54.5C197 55.0523 196.552 55.5 196 55.5H158C157.448 55.5 157 55.0523 157 54.5Z" fill="#C4C4C4"/>
<path d="M206.929 26.0929L206.643 25.6825L206.643 25.6825L206.929 26.0929ZM206.98 52.5748L206.72 53.0019L206.98 52.5748ZM156.5 25V54.5H157.5V25H156.5ZM158 56H196V55H158V56ZM196 23.5H158V24.5H196V23.5ZM197.5 33V25H196.5V33H197.5ZM197.286 33.4105L207.214 26.5034L206.643 25.6825L196.714 32.5895L197.286 33.4105ZM208 26.9138V51.7206H209V26.9138H208ZM197.5 54.5V46.5H196.5V54.5H197.5ZM197.5 46.5V33H196.5V46.5H197.5ZM207.24 52.1477L197.26 46.0729L196.74 46.9271L206.72 53.0019L207.24 52.1477ZM208 51.7206C208 52.1107 207.573 52.3505 207.24 52.1477L206.72 53.0019C207.72 53.6104 209 52.8908 209 51.7206H208ZM196 24.5C196.276 24.5 196.5 24.7239 196.5 25H197.5C197.5 24.1716 196.828 23.5 196 23.5V24.5ZM196 56C196.828 56 197.5 55.3284 197.5 54.5H196.5C196.5 54.7761 196.276 55 196 55V56ZM156.5 54.5C156.5 55.3284 157.172 56 158 56V55C157.724 55 157.5 54.7761 157.5 54.5H156.5ZM207.214 26.5034C207.546 26.2727 208 26.51 208 26.9138H209C209 25.7023 207.638 24.9906 206.643 25.6825L207.214 26.5034ZM157.5 25C157.5 24.7239 157.724 24.5 158 24.5V23.5C157.172 23.5 156.5 24.1716 156.5 25H157.5Z" fill="black"/>
<path d="M177.685 60.87V72H176.665V70.44C176.345 70.97 175.92 71.375 175.39 71.655C174.87 71.935 174.28 72.075 173.62 72.075C172.88 72.075 172.21 71.905 171.61 71.565C171.01 71.225 170.54 70.75 170.2 70.14C169.86 69.53 169.69 68.835 169.69 68.055C169.69 67.275 169.86 66.58 170.2 65.97C170.54 65.36 171.01 64.89 171.61 64.56C172.21 64.22 172.88 64.05 173.62 64.05C174.26 64.05 174.835 64.185 175.345 64.455C175.865 64.715 176.29 65.1 176.62 65.61V60.87H177.685ZM173.71 71.13C174.26 71.13 174.755 71.005 175.195 70.755C175.645 70.495 175.995 70.13 176.245 69.66C176.505 69.19 176.635 68.655 176.635 68.055C176.635 67.455 176.505 66.92 176.245 66.45C175.995 65.98 175.645 65.62 175.195 65.37C174.755 65.11 174.26 64.98 173.71 64.98C173.15 64.98 172.645 65.11 172.195 65.37C171.755 65.62 171.405 65.98 171.145 66.45C170.895 66.92 170.77 67.455 170.77 68.055C170.77 68.655 170.895 69.19 171.145 69.66C171.405 70.13 171.755 70.495 172.195 70.755C172.645 71.005 173.15 71.13 173.71 71.13ZM181.671 65.655C181.921 65.125 182.291 64.725 182.781 64.455C183.281 64.185 183.896 64.05 184.626 64.05V65.085L184.371 65.07C183.541 65.07 182.891 65.325 182.421 65.835C181.951 66.345 181.716 67.06 181.716 67.98V72H180.651V64.11H181.671V65.655ZM186.554 64.11H187.619V72H186.554V64.11ZM187.094 62.385C186.874 62.385 186.689 62.31 186.539 62.16C186.389 62.01 186.314 61.83 186.314 61.62C186.314 61.42 186.389 61.245 186.539 61.095C186.689 60.945 186.874 60.87 187.094 60.87C187.314 60.87 187.499 60.945 187.649 61.095C187.799 61.235 187.874 61.405 187.874 61.605C187.874 61.825 187.799 62.01 187.649 62.16C187.499 62.31 187.314 62.385 187.094 62.385ZM190.583 60.87H191.648V72H190.583V60.87ZM194.611 60.87H195.676V72H194.611V60.87Z" fill="black"/>
<path d="M22.378 57.6V73H20.772V65.894H11.136V73H9.508V57.6H11.136V64.464H20.772V57.6H22.378ZM31.8045 73.11C30.6898 73.11 29.6852 72.8607 28.7905 72.362C27.8958 71.8487 27.1918 71.1447 26.6785 70.25C26.1652 69.3553 25.9085 68.3433 25.9085 67.214C25.9085 66.0847 26.1652 65.0727 26.6785 64.178C27.1918 63.2833 27.8958 62.5867 28.7905 62.088C29.6852 61.5893 30.6898 61.34 31.8045 61.34C32.9192 61.34 33.9238 61.5893 34.8185 62.088C35.7132 62.5867 36.4098 63.2833 36.9085 64.178C37.4218 65.0727 37.6785 66.0847 37.6785 67.214C37.6785 68.3433 37.4218 69.3553 36.9085 70.25C36.4098 71.1447 35.7132 71.8487 34.8185 72.362C33.9238 72.8607 32.9192 73.11 31.8045 73.11ZM31.8045 71.724C32.6258 71.724 33.3592 71.5407 34.0045 71.174C34.6645 70.7927 35.1778 70.2573 35.5445 69.568C35.9112 68.8787 36.0945 68.094 36.0945 67.214C36.0945 66.334 35.9112 65.5493 35.5445 64.86C35.1778 64.1707 34.6645 63.6427 34.0045 63.276C33.3592 62.8947 32.6258 62.704 31.8045 62.704C30.9832 62.704 30.2425 62.8947 29.5825 63.276C28.9372 63.6427 28.4238 64.1707 28.0425 64.86C27.6758 65.5493 27.4925 66.334 27.4925 67.214C27.4925 68.094 27.6758 68.8787 28.0425 69.568C28.4238 70.2573 28.9372 70.7927 29.5825 71.174C30.2425 71.5407 30.9832 71.724 31.8045 71.724ZM55.2995 61.34C56.7515 61.34 57.8881 61.758 58.7095 62.594C59.5455 63.43 59.9635 64.662 59.9635 66.29V73H58.4015V66.444C58.4015 65.2413 58.1081 64.3247 57.5215 63.694C56.9495 63.0633 56.1355 62.748 55.0795 62.748C53.8768 62.748 52.9308 63.122 52.2415 63.87C51.5521 64.6033 51.2075 65.6227 51.2075 66.928V73H49.6455V66.444C49.6455 65.2413 49.3521 64.3247 48.7655 63.694C48.1935 63.0633 47.3721 62.748 46.3015 62.748C45.1135 62.748 44.1675 63.122 43.4635 63.87C42.7741 64.6033 42.4295 65.6227 42.4295 66.928V73H40.8675V61.428H42.3635V63.54C42.7741 62.836 43.3461 62.2933 44.0795 61.912C44.8128 61.5307 45.6561 61.34 46.6095 61.34C47.5775 61.34 48.4135 61.5453 49.1175 61.956C49.8361 62.3667 50.3715 62.9753 50.7235 63.782C51.1488 63.0193 51.7575 62.4253 52.5495 62C53.3561 61.56 54.2728 61.34 55.2995 61.34ZM74.3185 67.698H64.6385C64.7265 68.9007 65.1885 69.876 66.0245 70.624C66.8605 71.3573 67.9165 71.724 69.1925 71.724C69.9111 71.724 70.5711 71.5993 71.1725 71.35C71.7738 71.086 72.2945 70.7047 72.7345 70.206L73.6145 71.218C73.1011 71.834 72.4558 72.3033 71.6785 72.626C70.9158 72.9487 70.0725 73.11 69.1485 73.11C67.9605 73.11 66.9045 72.8607 65.9805 72.362C65.0711 71.8487 64.3598 71.1447 63.8465 70.25C63.3331 69.3553 63.0765 68.3433 63.0765 67.214C63.0765 66.0847 63.3185 65.0727 63.8025 64.178C64.3011 63.2833 64.9758 62.5867 65.8265 62.088C66.6918 61.5893 67.6598 61.34 68.7305 61.34C69.8011 61.34 70.7618 61.5893 71.6125 62.088C72.4631 62.5867 73.1305 63.2833 73.6145 64.178C74.0985 65.058 74.3405 66.07 74.3405 67.214L74.3185 67.698ZM68.7305 62.682C67.6158 62.682 66.6771 63.0413 65.9145 63.76C65.1665 64.464 64.7411 65.388 64.6385 66.532H72.8445C72.7418 65.388 72.3091 64.464 71.5465 63.76C70.7985 63.0413 69.8598 62.682 68.7305 62.682Z" fill="black"/>
<path d="M362.5 90.0005H208.479C206.633 90.0005 205.414 89.11 204.97 88.0323C204.532 86.9691 204.787 85.5761 206.198 84.4142L206.479 84.1826L206.533 84.1385C215.517 76.7422 229.095 65.5636 228.686 48.0525C228.617 45.1182 230.782 42.5001 233.599 42.5001H362.5C364.985 42.5001 367 44.5148 367 47.0001V85.5005C367 87.9858 364.985 90.0005 362.5 90.0005Z" fill="#C4C4C4" stroke="black" stroke-linejoin="round"/>
<path d="M245.8 57.613C248.733 56.459 255.88 54.3587 261 55.1896V75.9614C257.8 75.3844 250.28 74.7843 245.8 77M245.8 57.613V77M245.8 57.613C243.4 56.5744 237.08 54.6357 231 55.1896V75.9614C234.2 75.269 241.64 74.5074 245.8 77" stroke="black"/>
<path d="M5 90.0005H159.021C160.867 90.0005 162.086 89.11 162.53 88.0323C162.968 86.9691 162.713 85.5761 161.302 84.4142L161.021 84.1826L160.967 84.1385C151.983 76.7422 138.405 65.5636 138.814 48.0525C138.883 45.1182 136.718 42.5001 133.901 42.5001H5C2.51472 42.5001 0.5 44.5148 0.5 47.0001V85.5005C0.5 87.9858 2.51472 90.0005 5 90.0005Z" fill="#C4C4C4" stroke="black" stroke-linejoin="round"/>
<path d="M163.241 17.867H157.521C157.573 18.5777 157.846 19.154 158.34 19.596C158.834 20.0293 159.458 20.246 160.212 20.246C160.637 20.246 161.027 20.1723 161.382 20.025C161.737 19.869 162.045 19.6437 162.305 19.349L162.825 19.947C162.522 20.311 162.14 20.5883 161.681 20.779C161.23 20.9697 160.732 21.065 160.186 21.065C159.484 21.065 158.86 20.9177 158.314 20.623C157.777 20.3197 157.356 19.9037 157.053 19.375C156.75 18.8463 156.598 18.2483 156.598 17.581C156.598 16.9137 156.741 16.3157 157.027 15.787C157.322 15.2583 157.72 14.8467 158.223 14.552C158.734 14.2573 159.306 14.11 159.939 14.11C160.572 14.11 161.139 14.2573 161.642 14.552C162.145 14.8467 162.539 15.2583 162.825 15.787C163.111 16.307 163.254 16.905 163.254 17.581L163.241 17.867ZM159.939 14.903C159.28 14.903 158.726 15.1153 158.275 15.54C157.833 15.956 157.582 16.502 157.521 17.178H162.37C162.309 16.502 162.054 15.956 161.603 15.54C161.161 15.1153 160.606 14.903 159.939 14.903ZM173.661 14.11C174.519 14.11 175.19 14.357 175.676 14.851C176.17 15.345 176.417 16.073 176.417 17.035V21H175.494V17.126C175.494 16.4153 175.32 15.8737 174.974 15.501C174.636 15.1283 174.155 14.942 173.531 14.942C172.82 14.942 172.261 15.163 171.854 15.605C171.446 16.0383 171.243 16.6407 171.243 17.412V21H170.32V17.126C170.32 16.4153 170.146 15.8737 169.8 15.501C169.462 15.1283 168.976 14.942 168.344 14.942C167.642 14.942 167.083 15.163 166.667 15.605C166.259 16.0383 166.056 16.6407 166.056 17.412V21H165.133V14.162H166.017V15.41C166.259 14.994 166.597 14.6733 167.031 14.448C167.464 14.2227 167.962 14.11 168.526 14.11C169.098 14.11 169.592 14.2313 170.008 14.474C170.432 14.7167 170.749 15.0763 170.957 15.553C171.208 15.1023 171.568 14.7513 172.036 14.5C172.512 14.24 173.054 14.11 173.661 14.11ZM182.443 14.11C183.084 14.11 183.665 14.2573 184.185 14.552C184.705 14.838 185.112 15.2453 185.407 15.774C185.701 16.3027 185.849 16.905 185.849 17.581C185.849 18.2657 185.701 18.8723 185.407 19.401C185.112 19.9297 184.705 20.3413 184.185 20.636C183.673 20.922 183.093 21.065 182.443 21.065C181.888 21.065 181.385 20.9523 180.935 20.727C180.493 20.493 180.129 20.155 179.843 19.713V23.522H178.92V14.162H179.804V15.514C180.081 15.0633 180.445 14.7167 180.896 14.474C181.355 14.2313 181.871 14.11 182.443 14.11ZM182.378 20.246C182.854 20.246 183.288 20.1377 183.678 19.921C184.068 19.6957 184.371 19.3793 184.588 18.972C184.813 18.5647 184.926 18.101 184.926 17.581C184.926 17.061 184.813 16.6017 184.588 16.203C184.371 15.7957 184.068 15.4793 183.678 15.254C183.288 15.0287 182.854 14.916 182.378 14.916C181.892 14.916 181.455 15.0287 181.065 15.254C180.683 15.4793 180.38 15.7957 180.155 16.203C179.938 16.6017 179.83 17.061 179.83 17.581C179.83 18.101 179.938 18.5647 180.155 18.972C180.38 19.3793 180.683 19.6957 181.065 19.921C181.455 20.1377 181.892 20.246 182.378 20.246ZM187.73 14.162H188.653V21H187.73V14.162ZM188.198 12.667C188.008 12.667 187.847 12.602 187.717 12.472C187.587 12.342 187.522 12.186 187.522 12.004C187.522 11.8307 187.587 11.679 187.717 11.549C187.847 11.419 188.008 11.354 188.198 11.354C188.389 11.354 188.549 11.419 188.679 11.549C188.809 11.6703 188.874 11.8177 188.874 11.991C188.874 12.1817 188.809 12.342 188.679 12.472C188.549 12.602 188.389 12.667 188.198 12.667ZM197.176 17.867H191.456C191.508 18.5777 191.781 19.154 192.275 19.596C192.769 20.0293 193.393 20.246 194.147 20.246C194.571 20.246 194.961 20.1723 195.317 20.025C195.672 19.869 195.98 19.6437 196.24 19.349L196.76 19.947C196.456 20.311 196.075 20.5883 195.616 20.779C195.165 20.9697 194.667 21.065 194.121 21.065C193.419 21.065 192.795 20.9177 192.249 20.623C191.711 20.3197 191.291 19.9037 190.988 19.375C190.684 18.8463 190.533 18.2483 190.533 17.581C190.533 16.9137 190.676 16.3157 190.962 15.787C191.256 15.2583 191.655 14.8467 192.158 14.552C192.669 14.2573 193.241 14.11 193.874 14.11C194.506 14.11 195.074 14.2573 195.577 14.552C196.079 14.8467 196.474 15.2583 196.76 15.787C197.046 16.307 197.189 16.905 197.189 17.581L197.176 17.867ZM193.874 14.903C193.215 14.903 192.66 15.1153 192.21 15.54C191.768 15.956 191.516 16.502 191.456 17.178H196.305C196.244 16.502 195.988 15.956 195.538 15.54C195.096 15.1153 194.541 14.903 193.874 14.903ZM203.827 20.233V21H198.263V20.389L202.566 14.942H198.341V14.162H203.749V14.773L199.446 20.233H203.827ZM208.035 14.11C208.928 14.11 209.613 14.3353 210.089 14.786C210.566 15.228 210.804 15.8867 210.804 16.762V21H209.92V19.934C209.712 20.2893 209.405 20.5667 208.997 20.766C208.599 20.9653 208.122 21.065 207.567 21.065C206.805 21.065 206.198 20.883 205.747 20.519C205.297 20.155 205.071 19.674 205.071 19.076C205.071 18.4953 205.279 18.0273 205.695 17.672C206.12 17.3167 206.792 17.139 207.71 17.139H209.881V16.723C209.881 16.1337 209.717 15.6873 209.387 15.384C209.058 15.072 208.577 14.916 207.944 14.916C207.511 14.916 207.095 14.9897 206.696 15.137C206.298 15.2757 205.955 15.4707 205.669 15.722L205.253 15.033C205.6 14.7383 206.016 14.513 206.501 14.357C206.987 14.1923 207.498 14.11 208.035 14.11ZM207.71 20.337C208.23 20.337 208.677 20.22 209.049 19.986C209.422 19.7433 209.699 19.3967 209.881 18.946V17.828H207.736C206.566 17.828 205.981 18.2353 205.981 19.05C205.981 19.4487 206.133 19.765 206.436 19.999C206.74 20.2243 207.164 20.337 207.71 20.337Z" fill="black"/>
<path d="M272.957 62.1C271.917 62.1 270.984 61.8733 270.157 61.42C269.344 60.9667 268.704 60.3333 268.237 59.52C267.771 58.6933 267.537 57.7667 267.537 56.74C267.537 55.7133 267.771 54.7933 268.237 53.98C268.704 53.1667 269.344 52.5333 270.157 52.08C270.984 51.6267 271.917 51.4 272.957 51.4C273.864 51.4 274.671 51.58 275.377 51.94C276.097 52.2867 276.664 52.8 277.077 53.48L276.017 54.2C275.671 53.68 275.231 53.2933 274.697 53.04C274.164 52.7733 273.584 52.64 272.957 52.64C272.197 52.64 271.511 52.8133 270.897 53.16C270.297 53.4933 269.824 53.9733 269.477 54.6C269.144 55.2267 268.977 55.94 268.977 56.74C268.977 57.5533 269.144 58.2733 269.477 58.9C269.824 59.5133 270.297 59.9933 270.897 60.34C271.511 60.6733 272.197 60.84 272.957 60.84C273.584 60.84 274.164 60.7133 274.697 60.46C275.231 60.2067 275.671 59.82 276.017 59.3L277.077 60.02C276.664 60.7 276.097 61.22 275.377 61.58C274.657 61.9267 273.851 62.1 272.957 62.1ZM283.547 51.4C284.92 51.4 285.973 51.7467 286.707 52.44C287.44 53.12 287.807 54.1333 287.807 55.48V62H286.447V60.36C286.127 60.9067 285.653 61.3333 285.027 61.64C284.413 61.9467 283.68 62.1 282.827 62.1C281.653 62.1 280.72 61.82 280.027 61.26C279.333 60.7 278.987 59.96 278.987 59.04C278.987 58.1467 279.307 57.4267 279.947 56.88C280.6 56.3333 281.633 56.06 283.047 56.06H286.387V55.42C286.387 54.5133 286.133 53.8267 285.627 53.36C285.12 52.88 284.38 52.64 283.407 52.64C282.74 52.64 282.1 52.7533 281.487 52.98C280.873 53.1933 280.347 53.4933 279.907 53.88L279.267 52.82C279.8 52.3667 280.44 52.02 281.187 51.78C281.933 51.5267 282.72 51.4 283.547 51.4ZM283.047 60.98C283.847 60.98 284.533 60.8 285.107 60.44C285.68 60.0667 286.107 59.5333 286.387 58.84V57.12H283.087C281.287 57.12 280.387 57.7467 280.387 59C280.387 59.6133 280.62 60.1 281.087 60.46C281.553 60.8067 282.207 60.98 283.047 60.98ZM297.204 61.36C296.937 61.6 296.604 61.7867 296.204 61.92C295.817 62.04 295.41 62.1 294.984 62.1C293.997 62.1 293.237 61.8333 292.704 61.3C292.17 60.7667 291.904 60.0133 291.904 59.04V52.68H290.024V51.48H291.904V49.18H293.324V51.48H296.524V52.68H293.324V58.96C293.324 59.5867 293.477 60.0667 293.784 60.4C294.104 60.72 294.557 60.88 295.144 60.88C295.437 60.88 295.717 60.8333 295.984 60.74C296.264 60.6467 296.504 60.5133 296.704 60.34L297.204 61.36ZM303.469 51.4C304.842 51.4 305.895 51.7467 306.629 52.44C307.362 53.12 307.729 54.1333 307.729 55.48V62H306.369V60.36C306.049 60.9067 305.575 61.3333 304.949 61.64C304.335 61.9467 303.602 62.1 302.749 62.1C301.575 62.1 300.642 61.82 299.949 61.26C299.255 60.7 298.909 59.96 298.909 59.04C298.909 58.1467 299.229 57.4267 299.869 56.88C300.522 56.3333 301.555 56.06 302.969 56.06H306.309V55.42C306.309 54.5133 306.055 53.8267 305.549 53.36C305.042 52.88 304.302 52.64 303.329 52.64C302.662 52.64 302.022 52.7533 301.409 52.98C300.795 53.1933 300.269 53.4933 299.829 53.88L299.189 52.82C299.722 52.3667 300.362 52.02 301.109 51.78C301.855 51.5267 302.642 51.4 303.469 51.4ZM302.969 60.98C303.769 60.98 304.455 60.8 305.029 60.44C305.602 60.0667 306.029 59.5333 306.309 58.84V57.12H303.009C301.209 57.12 300.309 57.7467 300.309 59C300.309 59.6133 300.542 60.1 301.009 60.46C301.475 60.8067 302.129 60.98 302.969 60.98ZM304.949 47.36H306.849L303.609 49.84H302.209L304.949 47.36ZM311.585 47.16H313.005V62H311.585V47.16ZM321.257 62.1C320.243 62.1 319.33 61.8733 318.517 61.42C317.703 60.9533 317.063 60.3133 316.597 59.5C316.13 58.6867 315.897 57.7667 315.897 56.74C315.897 55.7133 316.13 54.7933 316.597 53.98C317.063 53.1667 317.703 52.5333 318.517 52.08C319.33 51.6267 320.243 51.4 321.257 51.4C322.27 51.4 323.183 51.6267 323.997 52.08C324.81 52.5333 325.443 53.1667 325.897 53.98C326.363 54.7933 326.597 55.7133 326.597 56.74C326.597 57.7667 326.363 58.6867 325.897 59.5C325.443 60.3133 324.81 60.9533 323.997 61.42C323.183 61.8733 322.27 62.1 321.257 62.1ZM321.257 60.84C322.003 60.84 322.67 60.6733 323.257 60.34C323.857 59.9933 324.323 59.5067 324.657 58.88C324.99 58.2533 325.157 57.54 325.157 56.74C325.157 55.94 324.99 55.2267 324.657 54.6C324.323 53.9733 323.857 53.4933 323.257 53.16C322.67 52.8133 322.003 52.64 321.257 52.64C320.51 52.64 319.837 52.8133 319.237 53.16C318.65 53.4933 318.183 53.9733 317.837 54.6C317.503 55.2267 317.337 55.94 317.337 56.74C317.337 57.54 317.503 58.2533 317.837 58.88C318.183 59.5067 318.65 59.9933 319.237 60.34C319.837 60.6733 320.51 60.84 321.257 60.84ZM339.236 51.48V60.72C339.236 62.5067 338.796 63.8267 337.916 64.68C337.049 65.5467 335.736 65.98 333.976 65.98C333.002 65.98 332.076 65.8333 331.196 65.54C330.329 65.26 329.622 64.8667 329.076 64.36L329.796 63.28C330.302 63.7333 330.916 64.0867 331.636 64.34C332.369 64.5933 333.136 64.72 333.936 64.72C335.269 64.72 336.249 64.4067 336.876 63.78C337.502 63.1667 337.816 62.2067 337.816 60.9V59.56C337.376 60.2267 336.796 60.7333 336.076 61.08C335.369 61.4267 334.582 61.6 333.716 61.6C332.729 61.6 331.829 61.3867 331.016 60.96C330.216 60.52 329.582 59.9133 329.116 59.14C328.662 58.3533 328.436 57.4667 328.436 56.48C328.436 55.4933 328.662 54.6133 329.116 53.84C329.582 53.0667 330.216 52.4667 331.016 52.04C331.816 51.6133 332.716 51.4 333.716 51.4C334.609 51.4 335.416 51.58 336.136 51.94C336.856 52.3 337.436 52.82 337.876 53.5V51.48H339.236ZM333.856 60.34C334.616 60.34 335.302 60.18 335.916 59.86C336.529 59.5267 337.002 59.0667 337.336 58.48C337.682 57.8933 337.856 57.2267 337.856 56.48C337.856 55.7333 337.682 55.0733 337.336 54.5C337.002 53.9133 336.529 53.46 335.916 53.14C335.316 52.8067 334.629 52.64 333.856 52.64C333.096 52.64 332.409 52.8 331.796 53.12C331.196 53.44 330.722 53.8933 330.376 54.48C330.042 55.0667 329.876 55.7333 329.876 56.48C329.876 57.2267 330.042 57.8933 330.376 58.48C330.722 59.0667 331.196 59.5267 331.796 59.86C332.409 60.18 333.096 60.34 333.856 60.34ZM347.507 62.1C346.493 62.1 345.58 61.8733 344.767 61.42C343.953 60.9533 343.313 60.3133 342.847 59.5C342.38 58.6867 342.147 57.7667 342.147 56.74C342.147 55.7133 342.38 54.7933 342.847 53.98C343.313 53.1667 343.953 52.5333 344.767 52.08C345.58 51.6267 346.493 51.4 347.507 51.4C348.52 51.4 349.433 51.6267 350.247 52.08C351.06 52.5333 351.693 53.1667 352.147 53.98C352.613 54.7933 352.847 55.7133 352.847 56.74C352.847 57.7667 352.613 58.6867 352.147 59.5C351.693 60.3133 351.06 60.9533 350.247 61.42C349.433 61.8733 348.52 62.1 347.507 62.1ZM347.507 60.84C348.253 60.84 348.92 60.6733 349.507 60.34C350.107 59.9933 350.573 59.5067 350.907 58.88C351.24 58.2533 351.407 57.54 351.407 56.74C351.407 55.94 351.24 55.2267 350.907 54.6C350.573 53.9733 350.107 53.4933 349.507 53.16C348.92 52.8133 348.253 52.64 347.507 52.64C346.76 52.64 346.087 52.8133 345.487 53.16C344.9 53.4933 344.433 53.9733 344.087 54.6C343.753 55.2267 343.587 55.94 343.587 56.74C343.587 57.54 343.753 58.2533 344.087 58.88C344.433 59.5067 344.9 59.9933 345.487 60.34C346.087 60.6733 346.76 60.84 347.507 60.84ZM274.935 65.16V80H273.575V77.92C273.149 78.6267 272.582 79.1667 271.875 79.54C271.182 79.9133 270.395 80.1 269.515 80.1C268.529 80.1 267.635 79.8733 266.835 79.42C266.035 78.9667 265.409 78.3333 264.955 77.52C264.502 76.7067 264.275 75.78 264.275 74.74C264.275 73.7 264.502 72.7733 264.955 71.96C265.409 71.1467 266.035 70.52 266.835 70.08C267.635 69.6267 268.529 69.4 269.515 69.4C270.369 69.4 271.135 69.58 271.815 69.94C272.509 70.2867 273.075 70.8 273.515 71.48V65.16H274.935ZM269.635 78.84C270.369 78.84 271.029 78.6733 271.615 78.34C272.215 77.9933 272.682 77.5067 273.015 76.88C273.362 76.2533 273.535 75.54 273.535 74.74C273.535 73.94 273.362 73.2267 273.015 72.6C272.682 71.9733 272.215 71.4933 271.615 71.16C271.029 70.8133 270.369 70.64 269.635 70.64C268.889 70.64 268.215 70.8133 267.615 71.16C267.029 71.4933 266.562 71.9733 266.215 72.6C265.882 73.2267 265.715 73.94 265.715 74.74C265.715 75.54 265.882 76.2533 266.215 76.88C266.562 77.5067 267.029 77.9933 267.615 78.34C268.215 78.6733 268.889 78.84 269.635 78.84ZM288.05 75.18H279.25C279.33 76.2733 279.75 77.16 280.51 77.84C281.27 78.5067 282.23 78.84 283.39 78.84C284.043 78.84 284.643 78.7267 285.19 78.5C285.737 78.26 286.21 77.9133 286.61 77.46L287.41 78.38C286.943 78.94 286.357 79.3667 285.65 79.66C284.957 79.9533 284.19 80.1 283.35 80.1C282.27 80.1 281.31 79.8733 280.47 79.42C279.643 78.9533 278.997 78.3133 278.53 77.5C278.063 76.6867 277.83 75.7667 277.83 74.74C277.83 73.7133 278.05 72.7933 278.49 71.98C278.943 71.1667 279.557 70.5333 280.33 70.08C281.117 69.6267 281.997 69.4 282.97 69.4C283.943 69.4 284.817 69.6267 285.59 70.08C286.363 70.5333 286.97 71.1667 287.41 71.98C287.85 72.78 288.07 73.7 288.07 74.74L288.05 75.18ZM282.97 70.62C281.957 70.62 281.103 70.9467 280.41 71.6C279.73 72.24 279.343 73.08 279.25 74.12H286.71C286.617 73.08 286.223 72.24 285.53 71.6C284.85 70.9467 283.997 70.62 282.97 70.62ZM300.555 80.1C299.515 80.1 298.582 79.8733 297.755 79.42C296.942 78.9667 296.302 78.3333 295.835 77.52C295.368 76.6933 295.135 75.7667 295.135 74.74C295.135 73.7133 295.368 72.7933 295.835 71.98C296.302 71.1667 296.942 70.5333 297.755 70.08C298.582 69.6267 299.515 69.4 300.555 69.4C301.462 69.4 302.268 69.58 302.975 69.94C303.695 70.2867 304.262 70.8 304.675 71.48L303.615 72.2C303.268 71.68 302.828 71.2933 302.295 71.04C301.762 70.7733 301.182 70.64 300.555 70.64C299.795 70.64 299.108 70.8133 298.495 71.16C297.895 71.4933 297.422 71.9733 297.075 72.6C296.742 73.2267 296.575 73.94 296.575 74.74C296.575 75.5533 296.742 76.2733 297.075 76.9C297.422 77.5133 297.895 77.9933 298.495 78.34C299.108 78.6733 299.795 78.84 300.555 78.84C301.182 78.84 301.762 78.7133 302.295 78.46C302.828 78.2067 303.268 77.82 303.615 77.3L304.675 78.02C304.262 78.7 303.695 79.22 302.975 79.58C302.255 79.9267 301.448 80.1 300.555 80.1ZM316.944 69.48V80H315.584V78.08C315.211 78.72 314.698 79.22 314.044 79.58C313.391 79.9267 312.644 80.1 311.804 80.1C310.431 80.1 309.344 79.72 308.544 78.96C307.758 78.1867 307.364 77.06 307.364 75.58V69.48H308.784V75.44C308.784 76.5467 309.058 77.3867 309.604 77.96C310.151 78.5333 310.931 78.82 311.944 78.82C313.051 78.82 313.924 78.4867 314.564 77.82C315.204 77.14 315.524 76.2 315.524 75V69.48H316.944ZM322.281 71.54C322.615 70.8333 323.108 70.3 323.761 69.94C324.428 69.58 325.248 69.4 326.221 69.4V70.78L325.881 70.76C324.775 70.76 323.908 71.1 323.281 71.78C322.655 72.46 322.341 73.4133 322.341 74.64V80H320.921V69.48H322.281V71.54ZM331.691 80.1C330.837 80.1 330.017 79.98 329.231 79.74C328.457 79.4867 327.851 79.1733 327.411 78.8L328.051 77.68C328.491 78.0267 329.044 78.3133 329.711 78.54C330.377 78.7533 331.071 78.86 331.791 78.86C332.751 78.86 333.457 78.7133 333.911 78.42C334.377 78.1133 334.611 77.6867 334.611 77.14C334.611 76.7533 334.484 76.4533 334.231 76.24C333.977 76.0133 333.657 75.8467 333.271 75.74C332.884 75.62 332.371 75.5067 331.731 75.4C330.877 75.24 330.191 75.08 329.671 74.92C329.151 74.7467 328.704 74.46 328.331 74.06C327.971 73.66 327.791 73.1067 327.791 72.4C327.791 71.52 328.157 70.8 328.891 70.24C329.624 69.68 330.644 69.4 331.951 69.4C332.631 69.4 333.311 69.4933 333.991 69.68C334.671 69.8533 335.231 70.0867 335.671 70.38L335.051 71.52C334.184 70.92 333.151 70.62 331.951 70.62C331.044 70.62 330.357 70.78 329.891 71.1C329.437 71.42 329.211 71.84 329.211 72.36C329.211 72.76 329.337 73.08 329.591 73.32C329.857 73.56 330.184 73.74 330.571 73.86C330.957 73.9667 331.491 74.08 332.171 74.2C333.011 74.36 333.684 74.52 334.191 74.68C334.697 74.84 335.131 75.1133 335.491 75.5C335.851 75.8867 336.031 76.42 336.031 77.1C336.031 78.02 335.644 78.7533 334.871 79.3C334.111 79.8333 333.051 80.1 331.691 80.1ZM342.956 80.1C341.942 80.1 341.029 79.8733 340.216 79.42C339.402 78.9533 338.762 78.3133 338.296 77.5C337.829 76.6867 337.596 75.7667 337.596 74.74C337.596 73.7133 337.829 72.7933 338.296 71.98C338.762 71.1667 339.402 70.5333 340.216 70.08C341.029 69.6267 341.942 69.4 342.956 69.4C343.969 69.4 344.882 69.6267 345.696 70.08C346.509 70.5333 347.142 71.1667 347.596 71.98C348.062 72.7933 348.296 73.7133 348.296 74.74C348.296 75.7667 348.062 76.6867 347.596 77.5C347.142 78.3133 346.509 78.9533 345.696 79.42C344.882 79.8733 343.969 80.1 342.956 80.1ZM342.956 78.84C343.702 78.84 344.369 78.6733 344.956 78.34C345.556 77.9933 346.022 77.5067 346.356 76.88C346.689 76.2533 346.856 75.54 346.856 74.74C346.856 73.94 346.689 73.2267 346.356 72.6C346.022 71.9733 345.556 71.4933 344.956 71.16C344.369 70.8133 343.702 70.64 342.956 70.64C342.209 70.64 341.536 70.8133 340.936 71.16C340.349 71.4933 339.882 71.9733 339.536 72.6C339.202 73.2267 339.036 73.94 339.036 74.74C339.036 75.54 339.202 76.2533 339.536 76.88C339.882 77.5067 340.349 77.9933 340.936 78.34C341.536 78.6733 342.209 78.84 342.956 78.84ZM354.015 80.1C353.162 80.1 352.342 79.98 351.555 79.74C350.782 79.4867 350.175 79.1733 349.735 78.8L350.375 77.68C350.815 78.0267 351.368 78.3133 352.035 78.54C352.702 78.7533 353.395 78.86 354.115 78.86C355.075 78.86 355.782 78.7133 356.235 78.42C356.702 78.1133 356.935 77.6867 356.935 77.14C356.935 76.7533 356.808 76.4533 356.555 76.24C356.302 76.0133 355.982 75.8467 355.595 75.74C355.208 75.62 354.695 75.5067 354.055 75.4C353.202 75.24 352.515 75.08 351.995 74.92C351.475 74.7467 351.028 74.46 350.655 74.06C350.295 73.66 350.115 73.1067 350.115 72.4C350.115 71.52 350.482 70.8 351.215 70.24C351.948 69.68 352.968 69.4 354.275 69.4C354.955 69.4 355.635 69.4933 356.315 69.68C356.995 69.8533 357.555 70.0867 357.995 70.38L357.375 71.52C356.508 70.92 355.475 70.62 354.275 70.62C353.368 70.62 352.682 70.78 352.215 71.1C351.762 71.42 351.535 71.84 351.535 72.36C351.535 72.76 351.662 73.08 351.915 73.32C352.182 73.56 352.508 73.74 352.895 73.86C353.282 73.9667 353.815 74.08 354.495 74.2C355.335 74.36 356.008 74.52 356.515 74.68C357.022 74.84 357.455 75.1133 357.815 75.5C358.175 75.8867 358.355 76.42 358.355 77.1C358.355 78.02 357.968 78.7533 357.195 79.3C356.435 79.8333 355.375 80.1 354.015 80.1Z" fill="black"/>
<path d="M9.508 59.6H11.136V75H9.508V59.6ZM21.7127 63.34C23.1647 63.34 24.316 63.7653 25.1667 64.616C26.032 65.452 26.4647 66.6767 26.4647 68.29V75H24.9027V68.444C24.9027 67.2413 24.602 66.3247 24.0007 65.694C23.3993 65.0633 22.5413 64.748 21.4267 64.748C20.18 64.748 19.19 65.122 18.4567 65.87C17.738 66.6033 17.3787 67.6227 17.3787 68.928V75H15.8167V63.428H17.3127V65.562C17.738 64.858 18.3247 64.3153 19.0727 63.934C19.8353 63.538 20.7153 63.34 21.7127 63.34ZM30.7053 63.428H32.2673V75H30.7053V63.428ZM31.4973 60.898C31.1747 60.898 30.9033 60.788 30.6833 60.568C30.4633 60.348 30.3533 60.084 30.3533 59.776C30.3533 59.4827 30.4633 59.226 30.6833 59.006C30.9033 58.786 31.1747 58.676 31.4973 58.676C31.82 58.676 32.0913 58.786 32.3113 59.006C32.5313 59.2113 32.6413 59.4607 32.6413 59.754C32.6413 60.0767 32.5313 60.348 32.3113 60.568C32.0913 60.788 31.82 60.898 31.4973 60.898ZM41.4095 75.11C40.2655 75.11 39.2389 74.8607 38.3295 74.362C37.4349 73.8633 36.7309 73.1667 36.2175 72.272C35.7042 71.3627 35.4475 70.3433 35.4475 69.214C35.4475 68.0847 35.7042 67.0727 36.2175 66.178C36.7309 65.2833 37.4349 64.5867 38.3295 64.088C39.2389 63.5893 40.2655 63.34 41.4095 63.34C42.4069 63.34 43.2942 63.538 44.0715 63.934C44.8635 64.3153 45.4869 64.88 45.9415 65.628L44.7755 66.42C44.3942 65.848 43.9102 65.4227 43.3235 65.144C42.7369 64.8507 42.0989 64.704 41.4095 64.704C40.5735 64.704 39.8182 64.8947 39.1435 65.276C38.4835 65.6427 37.9629 66.1707 37.5815 66.86C37.2149 67.5493 37.0315 68.334 37.0315 69.214C37.0315 70.1087 37.2149 70.9007 37.5815 71.59C37.9629 72.2647 38.4835 72.7927 39.1435 73.174C39.8182 73.5407 40.5735 73.724 41.4095 73.724C42.0989 73.724 42.7369 73.5847 43.3235 73.306C43.9102 73.0273 44.3942 72.602 44.7755 72.03L45.9415 72.822C45.4869 73.57 44.8635 74.142 44.0715 74.538C43.2795 74.9193 42.3922 75.11 41.4095 75.11ZM49.01 63.428H50.572V75H49.01V63.428ZM49.802 60.898C49.4794 60.898 49.208 60.788 48.988 60.568C48.768 60.348 48.658 60.084 48.658 59.776C48.658 59.4827 48.768 59.226 48.988 59.006C49.208 58.786 49.4794 58.676 49.802 58.676C50.1247 58.676 50.396 58.786 50.616 59.006C50.836 59.2113 50.946 59.4607 50.946 59.754C50.946 60.0767 50.836 60.348 50.616 60.568C50.396 60.788 50.1247 60.898 49.802 60.898ZM59.6482 75.11C58.5336 75.11 57.5289 74.8607 56.6342 74.362C55.7396 73.8487 55.0356 73.1447 54.5222 72.25C54.0089 71.3553 53.7522 70.3433 53.7522 69.214C53.7522 68.0847 54.0089 67.0727 54.5222 66.178C55.0356 65.2833 55.7396 64.5867 56.6342 64.088C57.5289 63.5893 58.5336 63.34 59.6482 63.34C60.7629 63.34 61.7676 63.5893 62.6622 64.088C63.5569 64.5867 64.2536 65.2833 64.7522 66.178C65.2656 67.0727 65.5222 68.0847 65.5222 69.214C65.5222 70.3433 65.2656 71.3553 64.7522 72.25C64.2536 73.1447 63.5569 73.8487 62.6622 74.362C61.7676 74.8607 60.7629 75.11 59.6482 75.11ZM59.6482 73.724C60.4696 73.724 61.2029 73.5407 61.8482 73.174C62.5082 72.7927 63.0216 72.2573 63.3882 71.568C63.7549 70.8787 63.9382 70.094 63.9382 69.214C63.9382 68.334 63.7549 67.5493 63.3882 66.86C63.0216 66.1707 62.5082 65.6427 61.8482 65.276C61.2029 64.8947 60.4696 64.704 59.6482 64.704C58.8269 64.704 58.0862 64.8947 57.4262 65.276C56.7809 65.6427 56.2676 66.1707 55.8862 66.86C55.5196 67.5493 55.3362 68.334 55.3362 69.214C55.3362 70.094 55.5196 70.8787 55.8862 71.568C56.2676 72.2573 56.7809 72.7927 57.4262 73.174C58.0862 73.5407 58.8269 73.724 59.6482 73.724Z" fill="black"/>
<circle cx="109" cy="66" r="19.5" stroke="black"/>
<path d="M97.55 63.7C98.21 63.7 98.7267 63.89 99.1 64.27C99.48 64.65 99.67 65.21 99.67 65.95V69H98.96V66.02C98.96 65.4733 98.8267 65.0567 98.56 64.77C98.3 64.4833 97.93 64.34 97.45 64.34C96.9033 64.34 96.4733 64.51 96.16 64.85C95.8467 65.1833 95.69 65.6467 95.69 66.24V69H94.98V66.02C94.98 65.4733 94.8467 65.0567 94.58 64.77C94.32 64.4833 93.9467 64.34 93.46 64.34C92.92 64.34 92.49 64.51 92.17 64.85C91.8567 65.1833 91.7 65.6467 91.7 66.24V69H90.99V63.74H91.67V64.7C91.8567 64.38 92.1167 64.1333 92.45 63.96C92.7833 63.7867 93.1667 63.7 93.6 63.7C94.04 63.7 94.42 63.7933 94.74 63.98C95.0667 64.1667 95.31 64.4433 95.47 64.81C95.6633 64.4633 95.94 64.1933 96.3 64C96.6667 63.8 97.0833 63.7 97.55 63.7ZM103.435 63.7C104.122 63.7 104.649 63.8733 105.015 64.22C105.382 64.56 105.565 65.0667 105.565 65.74V69H104.885V68.18C104.725 68.4533 104.489 68.6667 104.175 68.82C103.869 68.9733 103.502 69.05 103.075 69.05C102.489 69.05 102.022 68.91 101.675 68.63C101.329 68.35 101.155 67.98 101.155 67.52C101.155 67.0733 101.315 66.7133 101.635 66.44C101.962 66.1667 102.479 66.03 103.185 66.03H104.855V65.71C104.855 65.2567 104.729 64.9133 104.475 64.68C104.222 64.44 103.852 64.32 103.365 64.32C103.032 64.32 102.712 64.3767 102.405 64.49C102.099 64.5967 101.835 64.7467 101.615 64.94L101.295 64.41C101.562 64.1833 101.882 64.01 102.255 63.89C102.629 63.7633 103.022 63.7 103.435 63.7ZM103.185 68.49C103.585 68.49 103.929 68.4 104.215 68.22C104.502 68.0333 104.715 67.7667 104.855 67.42V66.56H103.205C102.305 66.56 101.855 66.8733 101.855 67.5C101.855 67.8067 101.972 68.05 102.205 68.23C102.439 68.4033 102.765 68.49 103.185 68.49ZM108.904 69.05C108.477 69.05 108.067 68.99 107.674 68.87C107.287 68.7433 106.984 68.5867 106.764 68.4L107.084 67.84C107.304 68.0133 107.581 68.1567 107.914 68.27C108.247 68.3767 108.594 68.43 108.954 68.43C109.434 68.43 109.787 68.3567 110.014 68.21C110.247 68.0567 110.364 67.8433 110.364 67.57C110.364 67.3767 110.301 67.2267 110.174 67.12C110.047 67.0067 109.887 66.9233 109.694 66.87C109.501 66.81 109.244 66.7533 108.924 66.7C108.497 66.62 108.154 66.54 107.894 66.46C107.634 66.3733 107.411 66.23 107.224 66.03C107.044 65.83 106.954 65.5533 106.954 65.2C106.954 64.76 107.137 64.4 107.504 64.12C107.871 63.84 108.381 63.7 109.034 63.7C109.374 63.7 109.714 63.7467 110.054 63.84C110.394 63.9267 110.674 64.0433 110.894 64.19L110.584 64.76C110.151 64.46 109.634 64.31 109.034 64.31C108.581 64.31 108.237 64.39 108.004 64.55C107.777 64.71 107.664 64.92 107.664 65.18C107.664 65.38 107.727 65.54 107.854 65.66C107.987 65.78 108.151 65.87 108.344 65.93C108.537 65.9833 108.804 66.04 109.144 66.1C109.564 66.18 109.901 66.26 110.154 66.34C110.407 66.42 110.624 66.5567 110.804 66.75C110.984 66.9433 111.074 67.21 111.074 67.55C111.074 68.01 110.881 68.3767 110.494 68.65C110.114 68.9167 109.584 69.05 108.904 69.05ZM114.566 69.05C114.046 69.05 113.58 68.9367 113.166 68.71C112.76 68.4833 112.44 68.1667 112.206 67.76C111.973 67.3467 111.856 66.8833 111.856 66.37C111.856 65.8567 111.973 65.3967 112.206 64.99C112.44 64.5833 112.76 64.2667 113.166 64.04C113.58 63.8133 114.046 63.7 114.566 63.7C115.02 63.7 115.423 63.79 115.776 63.97C116.136 64.1433 116.42 64.4 116.626 64.74L116.096 65.1C115.923 64.84 115.703 64.6467 115.436 64.52C115.17 64.3867 114.88 64.32 114.566 64.32C114.186 64.32 113.843 64.4067 113.536 64.58C113.236 64.7467 113 64.9867 112.826 65.3C112.66 65.6133 112.576 65.97 112.576 66.37C112.576 66.7767 112.66 67.1367 112.826 67.45C113 67.7567 113.236 67.9967 113.536 68.17C113.843 68.3367 114.186 68.42 114.566 68.42C114.88 68.42 115.17 68.3567 115.436 68.23C115.703 68.1033 115.923 67.91 116.096 67.65L116.626 68.01C116.42 68.35 116.136 68.61 115.776 68.79C115.416 68.9633 115.013 69.05 114.566 69.05ZM120.083 69.05C119.577 69.05 119.12 68.9367 118.713 68.71C118.307 68.4767 117.987 68.1567 117.753 67.75C117.52 67.3433 117.403 66.8833 117.403 66.37C117.403 65.8567 117.52 65.3967 117.753 64.99C117.987 64.5833 118.307 64.2667 118.713 64.04C119.12 63.8133 119.577 63.7 120.083 63.7C120.59 63.7 121.047 63.8133 121.453 64.04C121.86 64.2667 122.177 64.5833 122.403 64.99C122.637 65.3967 122.753 65.8567 122.753 66.37C122.753 66.8833 122.637 67.3433 122.403 67.75C122.177 68.1567 121.86 68.4767 121.453 68.71C121.047 68.9367 120.59 69.05 120.083 69.05ZM120.083 68.42C120.457 68.42 120.79 68.3367 121.083 68.17C121.383 67.9967 121.617 67.7533 121.783 67.44C121.95 67.1267 122.033 66.77 122.033 66.37C122.033 65.97 121.95 65.6133 121.783 65.3C121.617 64.9867 121.383 64.7467 121.083 64.58C120.79 64.4067 120.457 64.32 120.083 64.32C119.71 64.32 119.373 64.4067 119.073 64.58C118.78 64.7467 118.547 64.9867 118.373 65.3C118.207 65.6133 118.123 65.97 118.123 66.37C118.123 66.77 118.207 67.1267 118.373 67.44C118.547 67.7533 118.78 67.9967 119.073 68.17C119.373 68.3367 119.71 68.42 120.083 68.42ZM126.973 68.68C126.84 68.8 126.673 68.8933 126.473 68.96C126.28 69.02 126.076 69.05 125.863 69.05C125.37 69.05 124.99 68.9167 124.723 68.65C124.456 68.3833 124.323 68.0067 124.323 67.52V64.34H123.383V63.74H124.323V62.59H125.033V63.74H126.633V64.34H125.033V67.48C125.033 67.7933 125.11 68.0333 125.263 68.2C125.423 68.36 125.65 68.44 125.943 68.44C126.09 68.44 126.23 68.4167 126.363 68.37C126.503 68.3233 126.623 68.2567 126.723 68.17L126.973 68.68Z" fill="black"/>
</svg>
