<svg width="64" height="64" viewBox="0 0 64 64" fill="none" xmlns="http://www.w3.org/2000/svg">
<path fill-rule="evenodd" clip-rule="evenodd" d="M64 32C64 49.6731 49.6731 64 32 64C14.3269 64 0 49.6731 0 32C0 14.3269 14.3269 0 32 0C49.6731 0 64 14.3269 64 32ZM14.7463 32C14.9376 32.3305 15.1911 32.7517 15.5052 33.2381C16.312 34.4873 17.5068 36.1485 19.0579 37.8031C22.1922 41.1463 26.5741 44.25 32 44.25C37.4259 44.25 41.8078 41.1463 44.9421 37.8031C46.4932 36.1485 47.688 34.4873 48.4948 33.2381C48.8089 32.7517 49.0624 32.3305 49.2537 32C49.0624 31.6695 48.8089 31.2483 48.4948 30.7619C47.688 29.5127 46.4932 27.8515 44.9421 26.1969C41.8078 22.8537 37.4259 19.75 32 19.75C26.5741 19.75 22.1922 22.8537 19.0579 26.1969C17.5068 27.8515 16.312 29.5127 15.5052 30.7619C15.1911 31.2483 14.9376 31.6695 14.7463 32ZM51.25 32C52.8152 31.2174 52.815 31.2168 52.8146 31.2161L52.8139 31.2146L52.8118 31.2105L52.8058 31.1986L52.7859 31.1597L52.7676 31.1242C52.7533 31.0966 52.7358 31.0632 52.7152 31.0243C52.6543 30.9092 52.566 30.7457 52.4506 30.5405C52.2199 30.1304 51.8803 29.5527 51.4349 28.8631C50.5464 27.4873 49.2255 25.6485 47.4954 23.8031C44.0672 20.1463 38.8241 16.25 32 16.25C25.1759 16.25 19.9328 20.1463 16.5046 23.8031C14.7745 25.6485 13.4536 27.4873 12.5651 28.8631C12.1197 29.5527 11.7801 30.1304 11.5494 30.5405C11.434 30.7457 11.3457 30.9092 11.2848 31.0243C11.2544 31.0818 11.2308 31.1272 11.2141 31.1597L11.1942 31.1986L11.1882 31.2105L11.1861 31.2146L11.1854 31.2161C11.185 31.2168 11.1848 31.2174 12.75 32L11.1848 31.2174C10.9384 31.71 10.9384 32.29 11.1848 32.7826L12.75 32C11.1848 32.7826 11.185 32.7832 11.1854 32.7839L11.1861 32.7854L11.1882 32.7895L11.1942 32.8014L11.2141 32.8403C11.2308 32.8728 11.2544 32.9182 11.2848 32.9757C11.3457 33.0908 11.434 33.2543 11.5494 33.4595C11.7801 33.8696 12.1197 34.4473 12.5651 35.1369C13.4536 36.5127 14.7745 38.3515 16.5046 40.1969C19.9328 43.8537 25.1759 47.75 32 47.75C38.8241 47.75 44.0672 43.8537 47.4954 40.1969C49.2255 38.3515 50.5464 36.5127 51.4349 35.1369C51.8803 34.4473 52.2199 33.8696 52.4506 33.4595C52.566 33.2543 52.6543 33.0908 52.7152 32.9757L52.7429 32.9231L52.7733 32.8648L52.7859 32.8403L52.8058 32.8014L52.8118 32.7895L52.8139 32.7854L52.8146 32.7839C52.815 32.7832 52.8152 32.7826 51.25 32ZM51.25 32L52.8152 32.7826C53.0616 32.29 53.0616 31.71 52.8152 31.2174L51.25 32ZM28.5 32C28.5 30.067 30.067 28.5 32 28.5C33.933 28.5 35.5 30.067 35.5 32C35.5 33.933 33.933 35.5 32 35.5C30.067 35.5 28.5 33.933 28.5 32ZM32 25C28.134 25 25 28.134 25 32C25 35.866 28.134 39 32 39C35.866 39 39 35.866 39 32C39 28.134 35.866 25 32 25Z" fill="#007EAB"/>
</svg>
