<svg width="64" height="64" viewBox="0 0 64 64" fill="none" xmlns="http://www.w3.org/2000/svg">
<path fill-rule="evenodd" clip-rule="evenodd" d="M32 64C49.6731 64 64 49.6731 64 32C64 14.3269 49.6731 0 32 0C14.3269 0 0 14.3269 0 32C0 49.6731 14.3269 64 32 64ZM46.98 27.1351L51.25 32.0001L46.98 36.8651L47.575 43.3051L41.2575 44.7401L37.95 50.3051L32 47.7501L26.05 50.3226L22.7425 44.7576L16.425 43.3226L17.02 36.8651L12.75 32.0001L17.02 27.1176L16.425 20.6776L22.7425 19.2601L26.05 13.6951L32 16.2501L37.95 13.6951L41.2575 19.2601L47.575 20.6951L46.98 27.1351ZM30.25 37.2501V40.7501H33.75V37.2501H30.25ZM30.25 33.7501H33.75V23.2501H30.25V33.7501Z" fill="#007EAB"/>
</svg>
