<svg width="32" height="32" viewBox="0 0 32 32" fill="none" xmlns="http://www.w3.org/2000/svg">
<path fill-rule="evenodd" clip-rule="evenodd" d="M16 32C24.8366 32 32 24.8366 32 16C32 7.16344 24.8366 0 16 0C7.16344 0 0 7.16344 0 16C0 24.8366 7.16344 32 16 32ZM24.0064 19.2119C24.6207 18.6561 24.6681 17.7075 24.1123 17.0932C23.5565 16.4789 22.6079 16.4315 21.9936 16.9873L17.5 21.0529V7.33333C17.5 6.50491 16.8284 5.83333 16 5.83333C15.1716 5.83333 14.5 6.50491 14.5 7.33333V21.1555L9.6471 16.9643C9.02012 16.4229 8.07291 16.4922 7.53143 17.1191C6.98996 17.7461 7.05927 18.6933 7.68624 19.2348L15.0196 25.5681C15.5927 26.0631 16.4448 26.0533 17.0064 25.5452L24.0064 19.2119Z" fill="#C71D5D"/>
</svg>
