<svg width="64" height="64" viewBox="0 0 64 64" fill="none" xmlns="http://www.w3.org/2000/svg">
<path fill-rule="evenodd" clip-rule="evenodd" d="M32 64C49.6731 64 64 49.6731 64 32C64 14.3269 49.6731 0 32 0C14.3269 0 0 14.3269 0 32C0 49.6731 14.3269 64 32 64ZM53 30H49.9C49 21.66 42.34 15 34 14.1V11H30V14.1C21.66 15 15 21.66 14.1 30H11V34H14.1C15 42.34 21.66 49 30 49.9V53H34V49.9C42.34 49 49 42.34 49.9 34H53V30ZM21 30H18.14C18.565 27.0051 19.9513 24.2292 22.0903 22.0903C24.2292 19.9513 27.0051 18.565 30 18.14V21H34V18.14C36.9949 18.565 39.7708 19.9513 41.9097 22.0903C44.0486 24.2292 45.435 27.0051 45.86 30H43V34H45.86C45.435 36.9949 44.0486 39.7708 41.9097 41.9097C39.7708 44.0486 36.9949 45.435 34 45.86V43H30V45.86C27.0051 45.435 24.2292 44.0486 22.0903 41.9097C19.9513 39.7708 18.565 36.9949 18.14 34H21V30ZM24 38V40H40V38C40 35.34 34.66 34 32 34C29.34 34 24 35.34 24 38ZM34.8284 25.1716C34.0783 24.4214 33.0609 24 32 24C30.9391 24 29.9217 24.4214 29.1716 25.1716C28.4214 25.9217 28 26.9391 28 28C28 29.0609 28.4214 30.0783 29.1716 30.8284C29.9217 31.5786 30.9391 32 32 32C33.0609 32 34.0783 31.5786 34.8284 30.8284C35.5786 30.0783 36 29.0609 36 28C36 26.9391 35.5786 25.9217 34.8284 25.1716Z" fill="#F25700"/>
</svg>
