<svg width="64" height="64" viewBox="0 0 64 64" fill="none" xmlns="http://www.w3.org/2000/svg">
<path fill-rule="evenodd" clip-rule="evenodd" d="M32 64C49.6731 64 64 49.6731 64 32C64 14.3269 49.6731 0 32 0C14.3269 0 0 14.3269 0 32C0 49.6731 14.3269 64 32 64ZM34.6536 37.0964C33.8448 36.2877 32.7479 35.8333 31.6042 35.8333H19.1458C18.0021 35.8333 16.9052 36.2877 16.0964 37.0964C15.2877 37.9052 14.8333 39.0021 14.8333 40.1458V43.0208L14.8602 43.3026C15.6632 47.3314 19.3835 49.2673 25.5034 49.2673C31.6463 49.2673 35.3072 47.3084 35.9013 43.2317L35.9167 43.0247V40.1458C35.9167 39.0021 35.4623 37.9052 34.6536 37.0964ZM18.1294 39.1294C18.399 38.8598 18.7646 38.7083 19.1458 38.7083H31.6042C31.9854 38.7083 32.351 38.8598 32.6206 39.1294C32.8902 39.399 33.0417 39.7646 33.0417 40.1458V42.9116C32.6526 45.1828 30.3258 46.3923 25.5034 46.3923C20.6792 46.3923 18.245 45.1675 17.7083 42.8675V40.1458C17.7083 39.7646 17.8598 39.399 18.1294 39.1294ZM27.9422 21.0106C27.1283 20.6735 26.256 20.5 25.375 20.5C23.5958 20.5 21.8895 21.2068 20.6315 22.4648C19.3734 23.7229 18.6667 25.4292 18.6667 27.2083C18.6667 28.9875 19.3734 30.6938 20.6315 31.9518C21.8895 33.2099 23.5958 33.9167 25.375 33.9167C26.256 33.9167 27.1283 33.7431 27.9422 33.406C28.7561 33.0689 29.4956 32.5748 30.1185 31.9518C30.7414 31.3289 31.2356 30.5894 31.5727 29.7755C31.9098 28.9616 32.0833 28.0893 32.0833 27.2083C32.0833 26.3274 31.9098 25.4551 31.5727 24.6412C31.2356 23.8273 30.7414 23.0878 30.1185 22.4648C29.4956 21.8419 28.7561 21.3478 27.9422 21.0106ZM51.9036 14.0964C51.0948 13.2877 49.9979 12.8333 48.8542 12.8333H38.3125C37.1688 12.8333 36.0719 13.2877 35.2631 14.0964C34.4543 14.9052 34 16.0021 34 17.1458V23.8542C34 24.9149 34.391 25.9385 35.0982 26.7291C35.8054 27.5197 36.7791 28.022 37.8333 28.1398V30.5683C37.8336 31.0409 37.9737 31.5028 38.2359 31.896C38.4981 32.2892 38.8707 32.5961 39.3069 32.778C39.7431 32.96 40.2233 33.0088 40.6872 32.9185C41.1511 32.8281 41.5779 32.6026 41.9139 32.2702L46.0654 28.1667H48.8542C49.4205 28.1667 49.9813 28.0551 50.5045 27.8384C51.0277 27.6217 51.5031 27.304 51.9036 26.9036C52.304 26.5031 52.6217 26.0277 52.8384 25.5045C53.0551 24.9813 53.1667 24.4205 53.1667 23.8542V17.1458C53.1667 16.0021 52.7123 14.9052 51.9036 14.0964ZM22.6644 24.4978C23.3833 23.7789 24.3583 23.375 25.375 23.375C26.3917 23.375 27.3667 23.7789 28.0856 24.4978C28.8045 25.2166 29.2083 26.1917 29.2083 27.2083C29.2083 28.225 28.8045 29.2 28.0856 29.9189C27.3667 30.6378 26.3917 31.0417 25.375 31.0417C24.3583 31.0417 23.3833 30.6378 22.6644 29.9189C21.9455 29.2 21.5417 28.225 21.5417 27.2083C21.5417 26.1917 21.9455 25.2166 22.6644 24.4978ZM38.3125 15.7083H48.8542H48.8561C49.2373 15.7083 49.603 15.8598 49.8725 16.1294C50.1421 16.399 50.2936 16.7646 50.2936 17.1458V23.8542C50.2936 24.2354 50.1421 24.601 49.8725 24.8706C49.603 25.1402 49.2373 25.2917 48.8561 25.2917H44.8867L40.7064 29.4202V25.2917H38.3125C37.519 25.2917 36.875 24.6477 36.875 23.8542V17.1458C36.875 16.7646 37.0265 16.399 37.296 16.1294C37.5656 15.8598 37.9313 15.7083 38.3125 15.7083Z" fill="#F25700"/>
</svg>
