<svg width="64" height="64" viewBox="0 0 64 64" fill="none" xmlns="http://www.w3.org/2000/svg">
<path fill-rule="evenodd" clip-rule="evenodd" d="M32 64C49.6731 64 64 49.6731 64 32C64 14.3269 49.6731 0 32 0C14.3269 0 0 14.3269 0 32C0 49.6731 14.3269 64 32 64ZM16.9062 48.4062C16.1803 48.4062 15.5938 47.8197 15.5938 47.0938V29.8672H48.4062V47.0938C48.4062 47.8197 47.8197 48.4062 47.0938 48.4062H16.9062ZM40.2031 18.5469H47.0938C47.8197 18.5469 48.4062 19.1334 48.4062 19.8594V27.0781H15.5938V19.8594C15.5938 19.1334 16.1803 18.5469 16.9062 18.5469H23.7969V15.9219C23.7969 15.7414 23.9445 15.5938 24.125 15.5938H26.4219C26.6023 15.5938 26.75 15.7414 26.75 15.9219V18.5469H37.25V15.9219C37.25 15.7414 37.3977 15.5938 37.5781 15.5938H39.875C40.0555 15.5938 40.2031 15.7414 40.2031 15.9219V18.5469Z" fill="#F25700"/>
</svg>
