<svg width="64" height="64" viewBox="0 0 64 64" fill="none" xmlns="http://www.w3.org/2000/svg">
<path fill-rule="evenodd" clip-rule="evenodd" d="M32 64C49.6731 64 64 49.6731 64 32C64 14.3269 49.6731 0 32 0C14.3269 0 0 14.3269 0 32C0 49.6731 14.3269 64 32 64ZM41.32 17.2L46.8 22.68C47.5358 23.381 47.9637 24.3451 47.99 25.3611C48.0162 26.377 47.6386 27.3619 46.94 28.1L28.94 46.1C28.2881 46.7465 27.4336 47.149 26.52 47.24L18.18 48H18C17.7368 48.0015 17.4759 47.9511 17.2322 47.8515C16.9885 47.752 16.7669 47.6054 16.58 47.42C16.3716 47.2124 16.2116 46.9613 16.1113 46.6848C16.0111 46.4082 15.9731 46.1129 16 45.82L16.86 37.48C16.951 36.5664 17.3535 35.7119 18 35.06L36 17.06C36.7496 16.4267 37.7057 16.0911 38.6867 16.1169C39.6676 16.1427 40.6048 16.5282 41.32 17.2ZM20.16 43.8L26.16 43.24L37.4 32.04L32 26.64L20.7 37.8L20.16 43.8ZM34.64 24L40 29.36L44 25.46L38.54 20L34.64 24Z" fill="#F25700"/>
</svg>
